<svg height="1000" viewBox="0 0 1000 1000" width="1000" xmlns="http://www.w3.org/2000/svg"><rect fill="#fff" height="100%" width="100%"/><path d="m472.34 533.76.38 105.26-166.9-3.75-11.82-60.66-3.61-18.51 26.45-140.74c.01-.05.02-.09.02-.13l.05-.25 8.79-45.32c1.99-9.8 6.61-19.34 13.25-27.78 16.37-20.8 45.04-34.81 77-29.04 27.48 4.96 38.26 31.2 42.49 50.82 0 .02 0 .02.01.02v.01c2.68 12.44 2.73 22.22 2.73 22.22s4.08 5.08 5.91 9.42 2.8 12.4 2 27.31-10.65 18.43-10.65 18.43 7.34 3.99 11.46 17.08c4.11 13.1 2.56 64.93 2.44 75.61z" fill="#59311e" transform="matrix(-1.2593 0 0 1.2593 956.3058 -376.723376)"/><g transform="matrix(-1.2593 0 0 1.2593 956.3058 -376.72325)"><path d="m466.08 487.02c-.48 14.69-4.21 25.49-15.18 32.71-.01 0-.02 0-.02.01-5.96 3.92-14.05 6.79-24.91 8.65-37.59 6.44-73.11-15.27-71.18-38.54 1.89-22.84 18.95-44.7 19.57-45.48.01-.01.02-.01.02-.02.01-.01-23.33-17.29-19.89-27.91 3.43-10.63 7.88-16.88 9.81-16.95 18.81-.76 85.16 1.39 91.03 5.43 3.41 2.35 9.67 7.06 8.48 18.71-.81 8-13.34 18.2-13.34 18.2 8.94 2.95 16.36 22.53 15.61 45.19z" fill="#c4946e"/><path d="m379.2 421.33c-.23-9.8 3.75-11.92 16.58-8.35s16.5 7.25 20.83 7.25 12.42-5.11 19.13-5.13 10.57 1.77 10.94 7.77-3.89 8.83-11.14 7.87-14.79-4.34-20.3-3.94-12.32 2.87-22.43 3.94-13.43-1.69-13.61-9.41z" fill="#b68665"/><path d="m396.84 429.61a3.94 3.94 0 1 0 0-7.88 3.94 3.94 0 0 0 0 7.88zm38.54 1.13a3.94 3.94 0 0 0 0-7.88 3.94 3.94 0 0 0 0 7.88z" fill="#411714"/><path d="m411.29 452.8s-2.1-1.17-2.17-4.79c-.04-2.32 2.55-2.18 4.27-1.12 1.73 1.06 3.84 3.71 3.84 3.71s2.68-4.21 5.35-3.16 1.27 4.12-.75 4.73c-4.14 1.24-10.54.63-10.54.63z" fill="#b68665"/></g><path d="m391.18 416.83c-.25-.85 1.89-3.8 4.61-3.85s4.8 2.84 4.6 3.25c-.3.6-3.13-1.29-4.67-1.29-1.54-.01-4.41 2.33-4.54 1.89zm-10.04 60.31c-1.1-.67-1.69-5.96 1.19-8.68 2.89-2.72 7.97-1.64 8.15-1.01.27.95-4.65 1.67-6.31 3.18-1.65 1.52-2.46 6.87-3.03 6.51zm50-58.2c-.25-.85 1.89-3.8 4.61-3.85s4.8 2.84 4.6 3.25c-.3.6-3.13-1.29-4.67-1.29-1.55 0-4.42 2.34-4.54 1.89z" fill="#411714" transform="matrix(-1.2593 0 0 1.2593 956.3058 -376.723124)"/><g transform="matrix(-1.2593 0 0 1.2593 956.3058 -376.72325)"><path d="m383.03 469.4s33.5 11.53 65.84 4.7l-8.06 16.09 1.96 10.5s-21.4 4.26-34.89.83c-15.62-3.97-23-22.63-24.85-32.12z" fill="#411714"/><path d="m411.29 452.8c-1.58-1.03-2.99-2.31-4.11-3.97-.52-.84-1.04-1.8-1.06-3.04-.01-.61.14-1.28.47-1.85.35-.58.73-1 1.23-1.38.5-.37 1.14-.64 1.79-.74.66-.11 1.31-.03 1.88.13 1.16.31 2.09.9 2.9 1.53 1.62 1.3 2.85 2.77 3.98 4.44l-2.37.02c.53-.81 1.07-1.46 1.7-2.13.62-.66 1.34-1.26 2.18-1.77.83-.5 1.87-.91 3.03-.86.57.02 1.15.18 1.65.43.49.26.91.58 1.28.95.74.74 1.26 1.88 1.15 2.97-.07 1.08-.58 2-1.21 2.68-1.29 1.36-3 1.98-4.65 2.18 1.47-.75 2.84-1.73 3.58-2.99.36-.62.57-1.29.48-1.86-.08-.57-.36-1.03-.83-1.4-1.02-.79-1.96-.67-3.1.1-1.08.76-2.12 2.01-2.88 3.2l-1.15 1.78-1.22-1.76c-.95-1.37-2.12-2.77-3.36-3.83-.62-.52-1.28-.97-1.89-1.19-.63-.23-1.11-.19-1.62.09-.59.36-.95.72-1.03 1.35-.09.63.07 1.46.4 2.25.65 1.6 1.69 3.15 2.78 4.67z" fill="#401713"/><path d="m392.3 473.02s-1.39 3.23-.22 4.7c1.16 1.47 8.65 5.59 17.83 9.3 0 0-6.71-2.16-18.92-7.25-.96-.4-1.64 2.67-1.64 2.67s6.4 11.28 12.21 14.71c6.67 3.94 18.86 5.59 39.09 2.42 0 0-1.04-7.07-1.63-7.94s-12.5-1.91-12.5-1.91 11.06.38 12.46-.64c1.41-1.02 6.55-12.13 6.55-12.13s-8.1 1.09-11.41 1.15-23.96 1.43-41.82-5.08z" fill="#f1e6d1"/><path d="m347.48 407.99-5.45 15.69c0 .01 0 .01-.01.02l-4.37 12.6c-4.45-4.57-10.01-16.43-9.48-24.94v-.01c.08-1.36.32-2.64.74-3.78.75-2.06 2.09-3.69 4.19-4.68 10.62-4.95 14.38 5.1 14.38 5.1z" fill="#c4946e"/><g fill="#59311e"><path d="m311.12 572.79c-3.92 31.63-15.22 44.95-15.22 44.95.06 8.29-1.49 16.38-4.05 24.03-3.39 10.2-8.54 19.64-13.98 27.73-2.94 4.39-5.97 8.39-8.85 11.91v.01c-1.8 2.2-3.77 9.65-6.01 17.28-.64 2.17-1.12 4.8-1.52 7.62-1.64 11.5-1.92 25.97-5.67 23.31-5.68-1.02-10.76-2.03-15.31-3.06-19.78-4.47-29.63-9.19-36.18-15.47-6.27-6.01-8.83-17.28-9.27-32.37-.11-4.05-.08-8.39.08-12.97 0 0-1.98-5.43-2.87-14.59-.27-2.67-.44-5.68-.44-8.95 0-1.67.04-3.32.11-4.96.12-2.9.35-5.76.67-8.57 4.74-40.97 29.42-70.95 33.79-79.08 4.08-7.58 47.91-20.88 70.51-27.3.18-.05.37-.11.55-.15l12.78-3.53c1.13 8.52 1.77 16.42 2.04 23.72l.05 1.23c.36 11.1-.16 20.79-1.21 29.21zm264.28 133.35c-3.3 4.42-6.99 7.91-10.76 10.64-.18.13-.34.25-.51.38-.02.02-.04.02-.05.04-.05.04-.1.07-.15.1-.04.02-.08.05-.11.08-7.64 5.32-15.56 7.62-21.33 8.34-1.68.22-3.18.3-4.44.28-9.88-.14-18.55-9.37-25.19-19.68-8.4-13.04-13.56-27.8-13.81-28.09a141.78 141.78 0 0 1 -4.29-5l-.01-.02c-7.42-9.11-14.69-20.71-18.32-35.62-1.56-6.38-2.44-13.37-2.39-21.03 0 0-8.07-9.52-12.92-31.57-.88-3.95-1.65-8.29-2.24-13.05-1.8-14.26-2.1-32.26.83-54.48l12.85 3.55c22.46 6.37 66.89 19.8 71 27.44 5 9.31 29.32 26.42 30.71 102.12l.06 7.58-.01 3.3-.04 7.42c-.05 7.16-.16 15.45-.42 16.6 1.91 8.41 3.19 18.46 1.54 20.67z"/><path d="m494.76 673.2c-1.77 6.5-4.21 11.95-7.55 15.49 0 0 7.55 9.83-5.97 46.68-11.59 31.61-22.24 64.27-22.24 64.27h-151.55l-.01-.02c-.12-1.13-4.48-37.42-26.19-84.66-7.67-4.6-18.81-16.59-23.5-22.24-1.11-1.34-1.85-2.32-2.11-2.77 0-.01-1.02-18.35-1.99-34.31l-.53-8.53c-3-46.89 16.53-66.1 58-75.51 8.83-2 18.67-3.56 29.5-4.85l.25-.03c33.29-3.94 76.17 5.35 108.66 14.76l11.6 3.49c21.67 6.77 36.43 12.73 36.43 12.73s4.81 47.54-2.8 75.5z"/></g></g><path d="m571.71 1046.61s-14.16 8.36-34.28 11.59-53.49-8.28-64.09-6.96c-10.6 1.33-54.15 2.24-59.36-5.75-3.88-5.95.15-34.46 2.47-48.7l1.4-8.14s-4.31-6.27-8.96-14.4c-6-10.46-12.57-23.99-11.32-31.18 2.24-12.79 11.92-22.39 11.92-22.39l-21.94-45.35c-16.39 37.97-41.39 62.29-41.39 62.29.13 5.04 1.24 8.47 1.03 12.86-1 20.65-6.24 34.98-6.24 34.98-.34.63-.81 1.24-1.41 1.84-9.02 9.22-45.27 15.69-51.6 31.82a10.87 10.87 0 0 0 -.26.74c-.33.98-.54 1.99-.64 3.05-1.74 20.12 13.66 53.65 13.66 53.65-58.86 22.36-108.45 0-108.45 0-1.18-16.92.75-33.14 4.67-48.33 1.39-5.37 3.03-10.61 4.87-15.71l.01-.01c2.7-7.48 5.84-14.67 9.25-21.5a213.04 213.04 0 0 1 5.79-10.83c23.04-40.41 53.72-66.06 53.72-66.06 11.18-42.47 36.87-82.57 36.87-82.57-3-9.55 0-31.92 0-31.92h151.57l1.77 20.78c11.92 15.57 20.96 67.56 20.96 67.56s6.29 6.3 6.29 12.26-3.64 11.59-3.64 11.59c.77 4.64 8.82 26.59 15.38 44.07l3.94 10.45 4.68 12.21c2.79 1.01 6.28 3.39 9.98 6.42 11.74 9.64 25.53 25.87 25.53 25.87 14.66.25 26.08 10.18 26.08 10.18z" fill="#9f8f6b" transform="matrix(-1.2593 0 0 1.2593 956.305926 -376.72325)"/><g transform="matrix(-1.2593 0 0 1.2593 956.3058 -376.72325)"><path d="m439.32 616.78s-133.48-13.79-135.13-20.96c-.54-2.37-4.71-10.71-10.18-21.21l-3.61-18.51 26.45-140.74c-1.06 6.08-12.39 75.62 17.13 114.18 30.89 40.35 98.25 75.8 127.73 38.22 29.46-37.59-22.39 49.02-22.39 49.02z" fill="#4c281a"/><path d="m307.45 799.64-.01-.02c-.12-1.13-4.48-37.42-26.19-84.66-7.6-4.57-18.62-16.38-23.38-22.09a1.43 1.43 0 0 1 -.11-.15l.03-.03c.02-.01.03-.02.05-.04.62-.5 4.73-3.87 9.98-9.1 11.81-11.72 25.52-25.4 28.09-50.57 10.85 31.11 11.54 166.66 11.54 166.66zm191.61-121.41-4.29-5-.01-.02s9.43-29.59 4.68-59.99c.48 2.41 5.25 26.77 7.25 50.36-8.11 7.61-7.63 14.65-7.63 14.65z" fill="#d3d8d8"/><path d="m295.01 616.33c.45 2.56.79 5.16.8 7.78.04.65.02 1.31 0 1.96l-.06 1.97-.41 3.91c-.15 1.31-.43 2.59-.68 3.88l-.99 3.82c-.71 2.53-1.64 5-2.7 7.41-2.07 4.84-4.78 9.39-7.81 13.67-3.09 4.26-6.46 8.27-10.39 11.85l-1.99 1.82.56-2.68c.28-1.31.36-2.83.3-4.26-.05-1.45-.25-2.9-.55-4.33-.66-2.84-1.76-5.59-3.34-8.07-1.56-2.49-3.51-4.74-5.7-6.73-2.18-2.01-4.62-3.74-7.19-5.26-5.13-3.07-10.76-5.28-16.51-7.01-5.76-1.73-11.67-2.95-17.63-3.93 5.99.7 11.96 1.75 17.8 3.31s11.61 3.61 16.91 6.64c5.32 2.94 10.19 6.97 13.58 12.17 3.36 5.19 5.12 11.53 4.02 17.88l-1.43-.86c3.64-3.53 6.98-7.53 9.95-11.7 3-4.17 5.62-8.61 7.78-13.26 1.09-2.32 2.03-4.71 2.84-7.14.43-1.21.75-2.45 1.12-3.68.28-1.25.64-2.49.85-3.75.51-2.52.82-5.08.98-7.66.2-2.56.05-5.15-.11-7.75zm203.16-10.98c.82 2.73 1.37 5.54 1.81 8.36l1.01 8.51c.45 5.7.49 11.42.28 17.14-.14 2.86-.3 5.71-.6 8.56-.23 2.85-.61 5.69-1 8.52-.37 2.84-.94 5.64-1.4 8.46-.54 2.81-1.16 5.6-1.76 8.39l-.21-.86 3.13 3.69-1.69.63c.03-.71.12-1.25.25-1.84a16.43 16.43 0 0 1 .47-1.7 18.42 18.42 0 0 1 1.41-3.17c1.1-2.03 2.53-3.84 4.09-5.49 3.15-3.29 6.94-5.83 10.9-7.89 3.97-2.06 8.16-3.65 12.42-4.89s8.59-2.22 12.96-2.92c-4.29 1.06-8.56 2.22-12.71 3.71-4.14 1.48-8.21 3.17-12.01 5.34-3.82 2.11-7.36 4.72-10.3 7.85-1.45 1.58-2.75 3.3-3.72 5.18a18.36 18.36 0 0 0 -1.24 2.89c-.32.96-.57 2.06-.6 2.94l-.11 2.47-1.59-1.84-3.16-3.66-.31-.36.1-.5 1.75-8.32c.47-2.79 1.05-5.57 1.43-8.38.4-2.8.85-5.6 1.12-8.42.36-2.81.54-5.64.77-8.46.35-5.65.51-11.32.31-16.99-.18-5.69-.65-11.37-1.8-16.95z" fill="#b0b0b0"/><path d="m450.88 519.74c-5.96 3.92-14.05 6.79-24.91 8.65-37.59 6.44-73.11-15.27-71.18-38.54 1.89-22.84 18.95-44.7 19.57-45.48-.51.82-21.68 34.45.66 58.97 22.61 24.82 64.99 22.34 75.86 16.4zm-108.86-96.04-4.37 12.6c-4.45-4.57-10.01-16.43-9.48-24.94.06.51 2.08 10.08 3.88 12.27 3.49 4.25 6.42 5.14 9.97.07z" fill="#b68665"/></g><path d="m458.44 363.67c-.43-1.14-14.27-37.83-45.49-41.45-31.06-3.6-56.09 2.95-74 19.66 16.37-20.8 45.04-34.81 77-29.04 27.48 4.97 38.26 31.21 42.49 50.83z" fill="#714233" transform="matrix(-1.2593 0 0 1.2593 956.3058 -376.723376)"/><g transform="matrix(-1.2593 0 0 1.2593 956.3058 -376.72325)"><path d="m273.73 939.17s-21.83 27.64-27.4 37.96c0 0 22.61-5.67 43.53 13.9-.59-.36-22.29-13.46-56.83-9.92l40.82-52.95-44.4 52.95-17.06 7.34c18.71-40.43 58.2-74.31 58.2-74.31 11.18-42.47 36.87-82.57 36.87-82.57-3-9.55 0-31.92 0-31.92h38.34l29.01 12.96-47.09 21.51 2.41 48.7zm65.82 48.15c-9.02 9.22-45.27 15.69-51.6 31.82a10.87 10.87 0 0 0 -.26.74c-.48-2.54-.36-5.29-.36-5.29s12.16-10.04 11.71-11.42-5.45-9.1-5.45-9.1 9.08 1.65 10.73-3.72c1.65-5.38-9.03-11.97-9.03-11.97l22.96.66c1.61.09 13.81 5.13 21.3 8.28zm164.16-20.97c-1.04-.25-3.58-.57-9.6-.54-9.23.05-32.71 11.68-33.44 12.04 9.94-7.93 31.56-14.17 31.56-14.17-8.33-5.02-32.12-1.42-32.12-1.42-9.1 2.21-23.54 9.74-26.75 13.61-3.22 3.86-2.48 11.49-.09 11.58s13.97-3.59 13.97-3.59-13.15 5.7-11.68 7.17 8 4.96 17.84 6.07c9.69 1.09 25.82-11.53 26.3-11.91-.17.37-5.75 12.25-8.74 16.33-3.03 4.14-22.43 4.78-22.43 4.78l-32.05-9.51 1.4-8.14s-4.31-6.27-8.96-14.4l4.58-8.5 69.41-16.18 16.86 6.31zm-231.99 31.74s-65.72 31.66-72.71 30.55l-2.07-.39c1.39-5.37 3.03-10.61 4.87-15.71l.01-.01c2.7-7.48 5.84-14.67 9.25-21.5 0 0 7.98-3.53 14.79-4.84l-7.39 14.49c.65-.31 30.11-14.71 53.25-2.59z" fill="#897b5a"/><path d="m518.36 984.97c-3.09 1.16-7.19 2.11-8.61 2.11-2.57 0-13.62-9.81-13.62-9.81l-4.87-10.63c10.27-2.48 12.3-.47 12.45-.3l4.68 12.21c2.77 1.01 6.27 3.39 9.97 6.42z" fill="#c0ab86"/><path d="m574.32 658.13-.01.02s-3.16-17.38-39.84-8c-14.17 3.62-22.68 8.63-27.78 13.42-8.11 7.62-7.64 14.66-7.64 14.66a141.78 141.78 0 0 1 -4.29-5l-.01-.02c-1.77 6.5-4.21 11.95-7.55 15.49 0 0 7.55 9.83-5.97 46.68-11.57 31.6-22.23 64.26-22.23 64.26h-151.55l-.01-.02c-.12-1.13-4.48-37.42-26.19-84.66-5.51-3.31-12.81-10.42-18.23-16.26-2.05-2.22-3.84-4.26-5.15-5.83a1.43 1.43 0 0 1 -.11-.15l.03-.03c.02-.01.03-.02.05-.04l9.98-9.1c.55-1.11.96-2.21 1.22-3.31l3.98-14.65c2.18-8.96-12.78-22.34-27.69-27.6-13.69-4.83-24.66-6.44-33.02-6.42-12.7.03-19.38 3.82-20.36 5.69l.15-2.7c.03-.62.08-1.24.13-1.86 0-.04.01-.08.01-.12l.24-2.48a1.23 1.23 0 0 1 .02-.2c.04-.41.08-.8.14-1.2 1.47-12.83 4.91-24.58 9.07-34.92 4.18-10.38 9.07-19.34 13.45-26.54 5.18-8.53 9.62-14.59 11.25-17.62 4.08-7.58 47.91-20.88 70.51-27.3.18-.05.37-.11.55-.15a83.55 83.55 0 0 0 2.13 3.65l.58.93c.59.93 1.2 1.86 1.85 2.8 2.9 4.24 6.35 8.53 10.26 12.81.02.02.03.04.05.05 7.81 8.54 17.47 16.95 28.28 24.35 24.45 16.72 54.88 28.29 83.74 24.65 10.5-1.33 18.73-4.96 25.17-9.91 3.66-2.82 6.75-6.06 9.35-9.56 10.4-13.98 13.02-31.94 13.6-42.37.29-5.22.08-8.57.08-8.57 22.46 6.37 66.89 19.8 71 27.44 4.73 8.82 26.8 24.63 30.3 90.58.31 5.95.48 12.31.46 19.11z" fill="#eaf1f4"/><path d="m502.7 963.68s-7.75-6.36-24.15-6.34c-6.55.01-14.47 1.03-23.83 3.88-5.71 1.74-11.94 4.15-18.71 7.43-45.64 22.04-68.8 35.82-110.47 18.97-.05-.02-.07-.02-.07-.02-.1-.05-.21-.09-.34-.14l-3.18-1.26c-39.78-15.41-59.15-7.56-59.15-7.56s3.9-41.26 29.23-67.3c59.02-60.68 28.68-107.01 28.68-107.01l-10.42-3.67-2.87-1.01-.03-.17-6.04-28.97.32.1a249.58 249.58 0 0 0 5.36 1.6c14.43 4.16 54.26 14.69 94.75 17.04 18.03 1.04 31.21.4 40.83-1.2 17.46-2.88 23.17-8.86 24.76-13.48l-1.98 26.07s26.72 35.8 27.85 88.33c1.17 52.52 14.36 51.49 9.46 74.71z" fill="#33c0cd"/><path d="m502.7 963.68s-7.75-6.36-24.15-6.34c13.78-1.42 10.41-6.02 7.39-12.08-3.03-6.07 2.76-37.78 1.1-59.57-1.65-21.79-18.75-42.47-21.6-58.61-2.85-16.13-15.61-17.08-15.61-17.08 7.17-3.17 4.81-11.61 4.12-17.4s-11.29-4.54-11.29-4.54c17.46-2.89 23.17-8.87 24.76-13.49l-1.98 26.07s26.72 35.8 27.85 88.33c1.12 52.52 14.31 51.49 9.41 74.71z" fill="#6fccd9"/><g fill="#35bac1"><path d="m392.58 819.74s-40.4-1.71-42.61 2.47-30.61 51.94-32.54 69.98c-1.93 18.03-20.69 65.75-15.44 75.95 4.64 9.05 11.81 14.52 19.99 18.04-39.78-15.41-59.15-7.56-59.15-7.56s3.9-41.26 29.23-67.3c59.02-60.68 28.68-107.01 28.68-107.01l-10.42-3.67 2.13-5.67 34.95 14.71c.54.71 45.18 10.06 45.18 10.06z"/><path d="m442.65 813.17c-1.04.45-21.74 9.16-60.83 5.3-28.91-2.84-59.54-13.35-74.41-19l-6.04-28.97.32.1 5.36 1.59v.01c.09.51 3.97 22.53 23.6 28.53 19.86 6.07 72.49 23.73 112 12.44z"/></g></g><path d="m300.72 1076.58c-58.86 22.36-108.45 0-108.45 0-.68-9.81-.32-19.39.87-28.67.38-2.97.85-5.92 1.39-8.83 0-.03.01-.06.02-.08 1.72-9.18 4.21-18.02 7.26-26.47l.01-.01c3.14-2.66 16.49-12.1 35.57-15.86 4.9-.96 10.18-1.55 15.77-1.55 2.83 0 5.45.15 7.84.44 27.62 3.24 26.96 23.58 26.96 23.58-.48 1.21-.78 2.47-.9 3.79-1.74 20.13 13.66 53.66 13.66 53.66zm270.99-29.97s-14.16 8.36-34.28 11.59-53.49-8.28-64.09-6.96c-10.6 1.33-54.15 2.24-59.36-5.75-5.22-8 3.88-56.84 3.88-56.84s9.32 11.67 32.49 14.24c12.3 1.37 19.05-8.08 27.37-15.91.12-.12.19-.18.19-.18 7.32-6.85 15.87-12.39 30.46-8.25 11.67 4.22 35.52 32.29 35.52 32.29 14.66.25 26.08 10.18 26.08 10.18z" fill="#4a4744" transform="matrix(-1.2593 0 0 1.2593 956.3058 -376.723376)"/><g transform="matrix(-1.2593 0 0 1.2593 956.3058 -376.72325)"><path d="m307.45 799.64c6.51 2.17 13.05 4.24 19.65 6.09 6.58 1.91 13.2 3.7 19.86 5.26 13.32 3.14 26.76 5.91 40.37 7.04 3.4.25 6.8.65 10.2.65l5.11.13 5.1-.22 2.55-.11c.85-.05 1.7-.17 2.55-.25l5.09-.53 5.06-.73c1.7-.2 3.37-.53 5.05-.84 6.71-1.23 13.35-2.93 19.72-5.38l2.39-.91 2.34-1.03c.79-.33 1.56-.7 2.31-1.1.76-.4 1.54-.74 2.27-1.18.74-.43 1.49-.83 2.22-1.28.71-.47 1.45-.9 2.15-1.4 1.41-.97 2.78-2 3.99-3.22-2.32 2.54-5.16 4.57-8.09 6.35-.72.47-1.49.86-2.24 1.29s-1.51.84-2.29 1.21l-2.32 1.14-2.37 1.03c-6.37 2.66-13.04 4.55-19.78 5.97-3.36.79-6.78 1.24-10.19 1.78l-5.14.58c-.86.09-1.71.21-2.57.27l-2.59.13-5.18.26-5.18-.08c-3.46.03-6.89-.34-10.33-.57-1.72-.11-3.43-.37-5.14-.58l-5.13-.66-10.18-1.74c-3.37-.7-6.76-1.29-10.1-2.11l-5.03-1.16-4.99-1.31c-13.29-3.48-26.4-7.68-39.14-12.79z" fill="#2eadad"/><path d="m573.85 639.02c-15.4-9.6-40.37-5.01-41.16-4.87 8.56-4.54 27.43-1.92 27.43-1.92-1.65-41.65-19.88-72.02-19.88-72.02-6.27 12.72-18.62 30.1-19 30.64.22-.84 9.84-37.28 3-42.18-6.76-4.85-49.76-18.46-51.77-19.09.29-5.22.08-8.57.08-8.57 22.46 6.37 66.89 19.8 71 27.44 4.74 8.81 26.8 24.62 30.3 90.57zm-82.12-8.38c.18-1.13.55 30.05-3.59 37.22s-14.62 14.04-30.06 14.88c0 0 29.23-24.78 33.65-52.1z" fill="#fdfefe"/><path d="m454.72 961.22c-5.71 1.74-11.94 4.15-18.71 7.42-45.64 22.04-68.8 35.82-110.47 18.97 1.56.47 29.37 7.88 48.12-57.53 8.51-29.69 24.29-61.29 24.29-61.29s1.57 105.92 56.77 92.43z" fill="#35bac1"/><path d="m452.57 776.88s18.57-73.72 7.16-94.51c0 0 22.79 6.62 20.96 23.9-1.84 17.29-28.12 70.61-28.12 70.61zm-183.15-195.79c-12.14-20.58-36.29-23.89-36.29-23.89-7.87 5.85-20.75 22.11-31.42 36.57 9.12-22.68 21.7-38.57 24.7-44.16 4.08-7.58 47.91-20.88 70.51-27.3.18-.05.37-.11.55-.15a83.55 83.55 0 0 0 2.13 3.65l.58.93c.59.93 1.2 1.86 1.85 2.8-12.99 1.02-59.81 21.05-59.81 21.05 18.82 11.22 26.95 29.92 27.2 30.5z" fill="#fdfefe"/></g><g fill="#35c0cd"><g transform="matrix(-1.2593 0 0 1.2593 956.3058 -376.72325)"><path d="m456.81 631.19 1.76-1.9h-1.08l-1.75 1.92-.01.01v-1.93h-.56l-.31.41v4.36h.87v-1.71l.01-.01.45-.49 1.36 2.21h1.07z"/><path d="m453.59 631.01c-.23-.26-.55-.39-.97-.39-.27 0-.5.06-.69.17-.2.12-.35.27-.45.47l-.07-.57h-.76v3.36h.86v-1.74c0-.31.08-.55.23-.72s.36-.26.6-.26c.25 0 .43.07.55.23.12.15.17.37.17.67v1.82h.86v-1.9c.02-.5-.1-.88-.33-1.14z"/><path d="m461.57 630.69-.05.46c-.12-.17-.27-.3-.46-.4-.19-.09-.41-.14-.67-.14-.32 0-.6.07-.84.23-.25.15-.45.36-.59.62s-.22.57-.22.91.07.64.22.91c.14.27.34.48.59.63s.53.23.84.23c.28 0 .52-.05.69-.17.18-.11.32-.24.43-.39l.05.48h.81v-3.36zm-.3 2.41c-.18.19-.41.28-.68.28s-.5-.09-.68-.28-.27-.43-.27-.73.09-.53.27-.72c.18-.18.41-.28.68-.28.28 0 .51.09.68.28.18.19.27.43.27.72 0 .3-.09.54-.27.73z"/></g><path d="m453.59 631.01c-.23-.26-.55-.39-.97-.39-.27 0-.5.06-.69.17-.2.12-.35.27-.45.47l-.07-.57h-.76v3.36h.86v-1.74c0-.31.08-.55.23-.72s.36-.26.6-.26c.25 0 .43.07.55.23.12.15.17.37.17.67v1.82h.86v-1.9c.02-.5-.1-.88-.33-1.14z" transform="matrix(-1.2593 0 0 1.2593 940.413434 -376.72325)"/><path d="m469.49 631.42v-.73h-.91v-1.05h-.35l-.42.55v.5h-.67v.73h.58v1.47c0 .44.1.74.32.92.21.17.5.26.84.26h.59v-.74h-.42c-.17 0-.29-.03-.36-.09s-.1-.17-.1-.33v-1.47zm3.76 0a1.52 1.52 0 0 0 -.59-.59c-.25-.14-.55-.22-.87-.22-.35 0-.66.07-.92.23-.26.15-.46.36-.61.63a1.88 1.88 0 0 0 -.22.93c0 .34.07.65.22.91s.35.47.62.61c.26.14.56.22.9.22.27 0 .51-.05.73-.15.21-.1.4-.23.54-.41.15-.17.25-.37.31-.58h-.88a.8.8 0 0 1 -.27.31c-.12.08-.27.12-.44.12-.23 0-.43-.07-.6-.22-.16-.15-.26-.35-.27-.62h2.55c0-.06.01-.11.01-.17v-.15a1.81 1.81 0 0 0 -.21-.85zm-2.34.63c.04-.24.15-.43.31-.55s.35-.18.56-.18c.19 0 .36.05.5.15.02.01.04.03.06.04a.69.69 0 0 1 .18.24c.04.08.06.18.06.29h-1.67zm6.38-.63a1.52 1.52 0 0 0 -.59-.59c-.25-.14-.54-.22-.87-.22-.35 0-.66.07-.92.23-.26.15-.46.36-.61.63a1.88 1.88 0 0 0 -.22.93c0 .34.07.65.22.91s.35.47.62.61c.26.14.56.22.9.22.27 0 .51-.05.73-.15a1.55 1.55 0 0 0 .54-.41c.15-.17.25-.37.31-.58h-.88a.8.8 0 0 1 -.27.31c-.12.08-.27.12-.44.12-.23 0-.44-.07-.6-.22s-.26-.35-.27-.62h2.55c0-.06.01-.11.01-.17v-.15a1.7 1.7 0 0 0 -.21-.85zm-2.34.63c.04-.24.15-.43.31-.55s.35-.18.56-.18c.22 0 .41.06.56.2.15.13.23.31.24.53zm6.23-1.04c-.23-.26-.55-.39-.97-.39-.27 0-.5.06-.69.17a1.13 1.13 0 0 0 -.45.47l-.07-.57h-.76v3.36h.86v-1.74c0-.31.08-.55.23-.72a.78.78 0 0 1 .6-.26c.25 0 .43.07.55.23.12.15.17.37.17.67v1.82h.86v-1.9c.01-.5-.11-.88-.33-1.14zm-31.43 3.05v-.06-3.85-.93h-.56l-.31.41v.52 3.91z" transform="matrix(-1.2593 0 0 1.2593 956.3058 -376.72325)"/></g><path d="m468.84 611.22c-.33 0-.65.06-.95.17-.03.01-.06.02-.09.04-.75.29-1.64.45-2.61.45-.93 0-1.8-.16-2.53-.43-.01-.01-.04-.01-.05-.02-.04-.01-.06-.03-.1-.04h-.01c-.29-.11-.62-.17-.95-.17-1.56 0-2.83 1.25-2.85 2.81v.05c0 1.35.93 2.48 2.2 2.79h.01c.17.04.24.24.13.37-.73.91-1.16 2.07-1.16 3.32 0 .19.01.38.03.56v.02c.05.5.42.9.9 1.02.43.1 1.74.17 3.22.19l1.13.01h.72l3.7-.19c.48-.12.85-.52.9-1.01v-.01c.02-.19.03-.39.03-.58 0-1.25-.43-2.4-1.16-3.32-.11-.14-.04-.33.13-.37h.01c1.26-.3 2.2-1.43 2.2-2.79v-.05c-.02-1.56-1.29-2.82-2.85-2.82zm0 1a1.87 1.87 0 0 1 1.86 1.83v.04a1.86 1.86 0 0 1 -1.43 1.81c-.01 0-.03.01-.04.01a1.24 1.24 0 0 0 -.84.78c-.14.4-.06.84.2 1.17.61.78.94 1.71.94 2.7l-.02.46v.02c-.01.06-.06.13-.14.15-.28.06-1.49.15-3.48.17h-.71c-.39 0-.76 0-1.12-.01l-3.01-.16c-.08-.02-.14-.08-.15-.15v-.03l-.02-.45c0-.99.32-1.92.93-2.7.27-.33.34-.77.2-1.17-.14-.39-.45-.68-.84-.78-.01-.01-.03-.01-.04-.01-.84-.2-1.42-.94-1.43-1.81v-.04c.01-1.01.85-1.83 1.86-1.83.2 0 .4.04.6.1l.02.01c.03.01.06.02.09.04.02.01.04.02.07.03a8.38 8.38 0 0 0 2.86.49c1.04 0 2.06-.18 2.94-.52.04-.01.06-.02.1-.04.19-.08.4-.11.6-.11zm-2.13 1.73a.94.94 0 0 0 .97 1.17c.29-.01.57-.18.74-.43.11-.18.16-.37.15-.55-.01-.16-.12-.3-.28-.32a5.23 5.23 0 0 0 -.72-.04c-.89.02-.86.17-.86.17zm-2.99 0a.94.94 0 0 1 -.97 1.17c-.29-.01-.57-.18-.74-.43-.11-.18-.16-.37-.15-.55.01-.16.12-.3.28-.32a5.23 5.23 0 0 1 .72-.04c.89.02.86.17.86.17zm2.97 3.28c.09 0 .18.04.25.1.22.22.34.51.35.82.01.34-.11.65-.34.89s-.55.37-.88.37a1.18 1.18 0 0 1 -.76-.27.18.18 0 0 0 -.22 0 1.26 1.26 0 0 1 -.76.27c-.33 0-.65-.13-.88-.37s-.35-.55-.34-.89c.01-.27.11-.53.28-.75.12-.15.34-.17.49-.05a.34.34 0 0 1 .04.49c-.08.09-.11.2-.12.32 0 .14.05.28.15.38.19.19.5.21.7.04.32-.25.78-.25 1.08 0 .21.17.52.14.7-.04.1-.1.15-.24.15-.38a.58.58 0 0 0 -.15-.35.35.35 0 0 1 0-.5c.08-.04.17-.08.26-.08zm2.55 6.12c.33 0 .45.43.17.61-.04.02-.06.04-.1.06-.85.48-2.31.8-3.87.82-1.95.03-3.58-.35-4.45-.89a.33.33 0 0 1 .17-.61zm-1.45 2.3c.22 0 .29.26.11.36-.02.01-.04.02-.06.04-.55.28-1.48.47-2.48.48-1.25.01-2.29-.2-2.86-.52-.18-.1-.11-.36.11-.36zm-2.59-21.22c-4.95 0-8.97 4.04-8.97 9a8.96 8.96 0 0 0 1.62 5.15c.09.12.22.21.37.23s.31-.01.43-.11c.24-.19.29-.53.11-.78-.97-1.4-1.45-3.03-1.4-4.74.13-4.1 3.43-7.44 7.52-7.6 2.15-.09 4.2.69 5.75 2.19s2.41 3.51 2.41 5.67a7.9 7.9 0 0 1 -1.4 4.49c-.17.25-.12.59.11.78.1.08.22.12.34.12.03 0 .06 0 .09-.01a.54.54 0 0 0 .37-.23c1.06-1.51 1.62-3.3 1.62-5.15 0-4.97-4.03-9.01-8.97-9.01z" fill="#34c0ce" transform="matrix(-1.2593 0 0 1.2593 956.3058 -376.72325)"/><path d="m300.72 1076.58c-58.86 22.36-108.45 0-108.45 0-.68-9.81-.32-19.39.87-28.67.38-2.97.85-5.92 1.39-8.83-.14-.38-.28-.77-.4-1.16.13.36.27.72.41 1.08 3.18 7.66 11.31 14.81 23.33 18.85 8.6 2.89 19.21 4.19 31.42 2.96 30.06-3.03 28.96-16.82 26.75-17.93-2.21-1.1-21.24 0-21.24 0s16.91-9.93 16.91-20.69c0-22.91-11.62-26.15-11.62-26.15l.9-.5c27.62 3.24 26.96 23.58 26.96 23.58-.48 1.21-.78 2.47-.9 3.79-1.73 20.14 13.67 53.67 13.67 53.67z" fill="#383433" transform="matrix(-1.2593 0 0 1.2593 956.3058 -376.72325)"/><path d="m240.2 1057.78s-10.91 2.34-22.32.08c-9.36-1.86-19.07-6.83-23.34-18.77-.14-.38-.28-.77-.4-1.16.13.36.27.72.41 1.08 1.72-9.18 4.21-18.02 7.26-26.47l.01-.01c3.14-2.66 16.49-12.1 35.57-15.86.01.01.02.01.02.01s-11 4.29-13.32 23.21c-.88 7.22 2.31 20.8 11.42 23.01 0 0-16-1.85-18.75-1.85-2.77-.01 8.87 14.48 23.44 16.73z" fill="#5a5857" transform="matrix(-1.2593 0 0 1.2593 956.3058 -376.72325)"/><path d="m571.71 1046.61s-14.16 8.36-34.28 11.59-53.49-8.28-64.09-6.96c-10.6 1.33-54.15 2.24-59.36-5.75-5.22-8 3.88-56.84 3.88-56.84s9.32 11.67 32.49 14.24c12.39 1.38 19.15-8.23 27.56-16.1l.87.28 37.39 30.87-12.47 12.16s67.1 6.83 66.26-9.09z" fill="#383433" transform="matrix(-1.2593 0 0 1.2593 956.305674 -376.72325)"/><g transform="matrix(-1.2593 0 0 1.2593 956.3058 -376.72325)"><path d="m569.97 1021.02c-.36 12.06-30.25 10.45-30.25 10.45 12.69-1.2 15.8-9.45 9.37-12.21-6.44-2.76-32.91-1.31-32.91-1.31l-33.82-27.92c-5.97 2.95-17.43 15.85-17.79 16.26 5.37-11.41 11.97-18.15 13.15-19.31.12-.12.19-.18.19-.18 7.32-6.85 15.87-12.39 30.46-8.25 11.67 4.22 35.52 32.29 35.52 32.29 14.66.25 26.08 10.18 26.08 10.18z" fill="#5a5857"/><path d="m562.19 700.97c-1.92 7.38-6.94 17.18-19.7 24.74-9.52 5.65-23.36 10.02-43.44 11.19-69.5 4.05-119.31-26.35-143.21-49.52-4.21-4.08-9.95-7.75-16.56-11.03a137.24 137.24 0 0 0 -11.26-4.94c-4.62-1.8-9.44-3.46-14.3-4.96-23.5-7.3-47.76-11.15-53.73-12.03l-1.39-.21s.88-35.3 6.95-38.02c6.08-2.72 27.01-19.27 46.88-15.41.2.04.39.08.58.11 4.76.97 12.47 2.97 21.54 5.49l1.2.34a.69.69 0 0 1 .08.03l6.99 1.97 12.38 3.59 4.88 1.43c.03.02.05.02.07.02l50.77 15.44s33.16 3.16 65.51 8.37c22.43 3.61 44.48 8.2 54.82 13.39 25.27 12.69 31.99 39.35 31.99 39.35s.57 4.48-1.05 10.66z" fill="#59311e"/><path d="m575.4 706.14c-10.2 13.67-24.07 18.46-32.9 19.57-9.52 5.65-23.36 10.02-43.44 11.19-69.5 4.05-119.31-26.35-143.21-49.52-4.21-4.08-9.95-7.75-16.56-11.03-3.55-1.76-7.32-3.41-11.26-4.94-4.62-1.8-9.44-3.46-14.3-4.96-23.5-7.3-47.76-11.15-53.73-12.03 5.36-6.62 15.91-16.96 31.86-21.03 11.4-2.91 23.13.55 38.72 8.17 17.59 8.6 40.11 22.48 72.64 38.46 41.62 20.44 85.63 25.3 109.65 26.3 11.4.49 18.29.1 18.29.1s17.1-.28 26.48-2.76c1.82-.48 3.32-1.44 4.55-2.68 5.12-5.13 5.65-14.97 5.65-14.97l6.43-17.15c-.05 7.16-.16 15.45-.42 16.6 1.92 8.42 3.2 18.47 1.55 20.68z" fill="#4c281a"/><path d="m330.58 641.55c-2.2 11.64-3.87 23.3-2.55 29.86-4.62-1.8-9.44-3.46-14.3-4.96-23.5-7.3-47.76-11.15-53.73-12.03l-1.39-.21s.88-35.3 6.95-38.02c6.08-2.72 27.01-19.27 46.88-15.41.2.04.39.08.58.11 5.54 1.1 9.89 2.17 21.54 5.49l1.2.34c.03.01.06.02.08.03 2.2 1.09-2.08 17.92-5.26 34.8z" fill="#c4946e"/></g><path d="m328.03 671.41c-4.62-1.8-9.44-3.46-14.3-4.96-23.5-7.3-47.76-11.15-53.73-12.03 5.36-6.62 15.91-16.96 31.86-21.03 11.4-2.91 23.13.55 38.72 8.17-2.2 11.63-3.87 23.29-2.55 29.85z" fill="#b68665" transform="matrix(-1.2593 0 0 1.2593 956.3058 -376.723376)"/><path d="m482.45 639.67s.26 3.51-.84 6.74l-9.12 3.89-5.65 2.77-.31.15-3.85 2.01c-5.65 3.01-11.74 6.51-18.32 10.48l-2.46 1.49-4.83 2.96c-.07.05-.14.09-.21.14l-2.59 1.62-5.32 3.35-2.73 1.74-8.47 5.45-5.88 3.82-13.95 9.15-4.4 2.9-3.81 2.51c-56.82 37.51-99.65 40.86-120.28 36.43-11.52-2.47-21.05-6.3-28.91-10.7-17.36-9.73-26.65-22.32-31.53-29.63l10.86-9.35 23.42-19.98 14.2-12.12.3-.25 6.48-2.76c.01 0 .02-.01.03-.02a627.99 627.99 0 0 1 27.6-10.7c33.93-12.24 86.67-29.95 123.22-35.97 5.47-.9 10.68-1.31 15.63-1.3l1.87.02a2.53 2.53 0 0 1 .28.01l1.54.05a44.84 44.84 0 0 1 1.68.09c.41.02.81.05 1.22.08.08 0 .17.01.25.02l1.56.14a45.1 45.1 0 0 1 1.63.18c1.08.12 2.15.28 3.2.44.62.09 1.23.2 1.85.31h.02.01c1.39.25 2.75.54 4.08.84.08.02.16.04.24.05 4.16.97 8.07 2.22 11.72 3.68a56.28 56.28 0 0 1 2.84 1.2c.02.01.04.02.05.02l1.56.7c.05.03.11.05.16.08l1.24.59c.21.11.43.21.64.32.93.46 1.85.93 2.74 1.41a100.67 100.67 0 0 1 3.1 1.76c.94.55 1.85 1.12 2.74 1.7.85.54 1.68 1.1 2.47 1.65.51.34 1 .7 1.49 1.05l1.25.92 1.24.94 1.13.9a87.45 87.45 0 0 1 2.23 1.83c10.23 8.7 15.35 16.8 15.35 16.8-8.96-3.88-21.18-4.64-34.65-3.62 4.98 1.63 13.04 3.85 14.99 1.02z" fill="#59311e" transform="matrix(-1.2593 0 0 1.2593 956.3058 -376.723376)"/><path d="m341.93 608.49s-12.71 41.59-20.88 62.57c-7.7-3.82-16.57-7.12-25.56-9.91 5.14-7.41 23.32-22.37 18.48-23-5.61-.72-8.98-12.7-9.1-13.1 3.45.55 6.3-.02 11.31-4.14 5.02-4.12 12.47-.66 12.96-.25-3.89-5.24-4.69-11.97-4.54-17.23.13-4.9 1.06-8.53 1.06-8.53 3.85 8.03 15.15 13.09 16.2 13.55.02.02.05.03.07.04z" fill="#59311e" transform="matrix(-1.2593 0 0 1.2593 956.3058 -376.72325)"/><path d="m502.08 642.28-2.65-.03-.77.04-2.21.19-1.04.14-.92.14c-2.19.36-4.5.91-6.96 1.64l-1.2.37-1.13.37-.13.05-1.21.41-1.26.45-.98.37-9.12 3.89-5.62-6.03-4.79-5.13-14.49-15.05 1.61-10.98.93-6.39c4.16.97 8.07 2.22 11.72 3.68.54.21 1.06.43 1.59.65l1.26.54c.02.01.04.02.05.02l1.56.7c.05.03.11.05.16.08l1.24.59c.06.03.12.06.18.08l1.85.93 1.35.71 1.57.87 1.52.89c.9.53 1.77 1.08 2.62 1.63.04.02.08.05.11.07l1.25.82 1.23.84c.25.17.51.34.75.52l.74.53c.09.06.17.13.26.19a80.9 80.9 0 0 1 2.23 1.67c.21.17.42.33.64.5.17.13.34.27.5.4l1.04.84 1.19 1c10.21 8.69 15.33 16.8 15.33 16.8z" fill="#c4946e" transform="matrix(-1.2593 0 0 1.2593 956.3058 -376.72325)"/><path d="m502.08 642.28-2.65-.03-.77.04-2.21.19-1.04.14-.92.14c-2.19.36-4.5.91-6.96 1.64l-1.2.37-1.13.37-.13.05-1.21.41-1.26.45-.98.37-9.12 3.89-5.62-6.03.54-5.62s23.77-1.35 34.66 3.62z" fill="#b68665" transform="matrix(-1.2593 0 0 1.2593 956.3058 -376.723376)"/><path d="m481.62 646.41c-.69 2.05-1.92 3.98-4.11 4.84-5.49 2.15-6.61-.16-10.65 1.82l-.31.15c-2.16 1.13-9.94-5.46-17.1-12.38-7.09-6.83-13.57-13.99-13.43-14.31.17-.4 3.75-7.96 6.52-13.84l3.26-6.86h.03c.22.09 1.61.62 4.08.84 3.04.27 7.72.06 13.89-2 0 0-.66 2.56-1.93 5.73-.57 1.42-1.26 2.96-2.07 4.47-1.88 3.49-4.4 6.7-7.51 7.48 0 0 8.02-.8 18.62 5.45 0 0-6.18 4.8-7.3 9.57.58.17 2 .68 3.82 1.28 5.01 1.62 13.07 3.85 15.02 1.01 0 .01.26 3.52-.83 6.75z" fill="#59311e" transform="matrix(-1.2593 0 0 1.2593 956.305674 -376.72325)"/><g transform="matrix(-1.2593 0 0 1.2593 956.3058 -376.72325)"><path d="m481.61 646.41c-.69 2.05-1.92 3.98-4.11 4.84-5.49 2.15-6.61-.16-10.65 1.82l-.31.15-3.85 2.01c-5.65 3.01-11.74 6.51-18.32 10.48l-2.46 1.49-4.83 2.96c-.07.05-.14.09-.21.14l-2.59 1.62-5.32 3.35-2.73 1.74-8.47 5.45-5.88 3.82-13.95 9.15-4.4 2.9-3.81 2.51c-56.82 37.51-99.65 40.86-120.28 36.43-11.52-2.47-21.05-6.3-28.91-10.7-19.78-4.47-29.63-9.19-36.18-15.47-7.94-7.63-9.93-23.72-9.19-45.34 0 0-1.98-5.43-2.87-14.59 0 0 3.24 10.37 8.76 13.87 0 0-.1 15.43 7.33 19.83 10.73 6.37 20.25-1.49 20.25-1.49s10.61 17.91 32.88 22.94c2.81.63 5.82 1.08 9.04 1.29 28.68 1.84 119.15-53.5 148.6-60.55 9.81-2.35 20.16-4.59 30.31-6.22 4.27-.69 8.5-1.26 12.65-1.7a169.96 169.96 0 0 1 5.33-.48c5.01 1.62 13.07 3.85 15.02 1.01-.01 0 .25 3.51-.85 6.74z" fill="#4c281a"/><path d="m203.36 701.72s-6.67-8.89-8.29-22.99a54.25 54.25 0 0 1 .08-12.97s-1.98-5.43-2.87-14.59c-.27-2.67-.44-5.68-.44-8.95l.11-4.96c.99-1.88 7.66-5.66 20.36-5.69l.07.77 4.41 29.12c-.01 0-23.17 8.09-13.43 40.26z" fill="#714233"/><path d="m234.96 671.06c1.85-2.43 4.17-4.48 6.52-6.42 2.36-1.96 4.88-3.7 7.47-5.34 5.18-3.27 10.67-6.04 16.29-8.46 5.64-2.4 11.39-4.45 17.14-6.45l17.28-5.92 34.74-11.28 34.93-10.68-34.52 11.93-34.54 11.82-17.24 5.98c-5.73 2.04-11.48 4.02-17.06 6.34-5.6 2.29-11.08 4.87-16.34 7.85a92.56 92.56 0 0 0 -7.69 4.82c-2.48 1.74-4.88 3.6-6.98 5.81z" fill="#4c281a"/><path d="m558.89 679.38s-12.3-24.94-33.44-30.84l-19.53-5.62s34.33 14.84 52.97 36.46z" fill="#714233"/><path d="m303.67 737.27c7.52-1.25 14.87-3.27 22.08-5.67 7.21-2.39 14.3-5.15 21.25-8.21 13.89-6.14 27.28-13.4 40.08-21.57l9.55-6.21 9.34-6.53c6.2-4.44 12.44-8.85 18.88-12.95 12.85-8.22 26.1-15.89 40.05-22.06-6.81 3.42-13.44 7.17-19.95 11.1-6.54 3.89-12.96 7.97-19.26 12.24-6.29 4.28-12.52 8.62-18.65 13.13l-9.34 6.63c-3.13 2.19-6.37 4.21-9.56 6.32-6.48 4.05-13.09 7.9-19.84 11.47-1.67.93-3.38 1.78-5.1 2.62l-5.14 2.54c-3.45 1.64-6.95 3.18-10.47 4.67-7.07 2.91-14.25 5.53-21.56 7.74l-5.52 1.52-5.57 1.33c-3.71.82-7.47 1.51-11.27 1.89z" fill="#3a1d14"/><path d="m502.08 642.28c4.67.26 9.3 1.09 13.85 2.22 4.55 1.14 9.02 2.66 13.32 4.57 2.14.99 4.26 2.03 6.3 3.22 2.02 1.22 4.02 2.49 5.87 3.97a43 43 0 0 1 5.2 4.8c1.56 1.77 2.98 3.66 4.12 5.7-1.51-1.79-3.1-3.47-4.81-5.01s-3.55-2.93-5.43-4.24c-3.8-2.58-7.85-4.77-12.06-6.63-4.19-1.9-8.54-3.47-12.94-4.89-4.4-1.4-8.88-2.64-13.42-3.71z" fill="#4c281a"/><path d="m226.16 611.54-12.14-1.01-2.02 17.65s-13.41-3.48-19.77 4.5c1.18-14.39 4.89-27.5 9.48-38.9 4.18-10.38 9.07-19.34 13.45-26.54l8.95-1.44-13.11 43.53c-.01 0 6.89-.28 15.16 2.21z" fill="#fdfefe"/><path d="m491.61 630.53c-1.25-1.16-12.32-11.15-31.82-15.66-3.29-.77-6.83-1.37-10.59-1.75l.93-6.39c4.16.97 8.07 2.22 11.72 3.68.54.21 1.06.43 1.59.65l1.26.54c.02.01.04.02.05.02l1.56.7c.05.03.11.05.16.08l1.24.59c.06.03.12.06.18.08l.46.24 1.39.7 1.35.71 1.57.87 1.52.89 2.74 1.7 1.25.82 1.23.84c.25.17.51.34.75.52l.74.53 1.25.92 1.24.94c.21.17.42.33.64.5.17.13.34.27.5.4l1.04.84 1.19 1z" fill="#d6a685"/><path d="m463.8 604.67s-.66 2.56-1.93 5.73c-.57 1.42-1.26 2.96-2.07 4.47-5.17-1.2-10.93-2.01-17.26-2.18-3.88-.1-7.98.05-12.28.5-39.44 4.14-132.31 35.19-147.65 38.7-9.6 2.19-26.88 9.09-39.34 15.73-7.15 3.8-12.71 7.52-14.33 10.22 1.23-2.13 8.49-13.51 28.53-22.34l2.55-1.08c1.28-.52 2.69-1.16 4.23-1.93.01 0 .02-.01.03-.02a627.99 627.99 0 0 1 27.6-10.7c33.93-12.24 86.67-29.95 123.22-35.97 5.47-.9 10.68-1.31 15.63-1.3l1.87.02c.1 0 .19 0 .28.01l1.54.05a44.84 44.84 0 0 1 1.68.09c.41.02.81.05 1.22.08.08 0 .17.01.25.02l1.56.14a45.1 45.1 0 0 1 1.63.18c1.08.12 2.15.28 3.2.44.62.09 1.23.2 1.85.31h.03c1.39.25 2.75.54 4.08.84 3.03.26 7.71.05 13.88-2.01zm111.6 101.47c-3.3 4.42-6.99 7.91-10.76 10.64 4.07-3.22 6.27-12.99 6.27-12.99.14-9.1-9.93-26.2-9.93-26.2l-2.09-26.96c11.6 1.67 15.21 10.27 15.42 10.8l-.04 7.42c-.05 7.16-.16 15.45-.42 16.6 1.92 8.43 3.2 18.48 1.55 20.69z" fill="#714233"/></g></svg>