<svg height="1000" viewBox="0 0 1000 1000" width="1000" xmlns="http://www.w3.org/2000/svg"><rect fill="#fff" height="100%" width="100%"/><path d="m521.46 533.76.38 105.26-166.9-3.75-11.82-60.66-3.61-18.51s15.56-83.57 26.45-140.74c.01-.05.02-.09.02-.13.02-.08.03-.17.05-.25 3.79-19.9 7-36.55 8.79-45.32 1.99-9.8 6.61-19.34 13.25-27.78 16.37-20.8 45.04-34.81 77-29.04 27.48 4.96 38.26 31.2 42.49 50.82 0 .02 0 .02.01.02v.01c2.68 12.44 2.73 22.22 2.73 22.22s4.08 5.08 5.91 9.42 2.8 12.4 2 27.31-10.65 18.43-10.65 18.43 7.34 3.99 11.46 17.08c4.11 13.1 2.57 64.93 2.44 75.61z" fill="#59311e" transform="matrix(-1.2768 0 0 1.2768 1012.319 -393.775228)"/><path d="m515.21 487.02c-.23 6.92-1.17 12.97-3.26 18.2-2.34 5.87-6.11 10.69-11.92 14.52-.01 0-.02 0-.02.01-2.83 1.86-6.13 3.49-9.97 4.86-4.27 1.56-9.22 2.81-14.94 3.79-37.59 6.44-73.11-15.27-71.18-38.54 1.89-22.84 18.95-44.7 19.57-45.48 0-.01.01-.01.01-.01s.01 0 .01-.01c.01-.01.01-.01.01-.01s-23.34-17.28-19.9-27.9c3.43-10.63 7.88-16.88 9.81-16.95 18.81-.76 85.16 1.39 91.03 5.43 3.41 2.35 9.67 7.06 8.48 18.71-.81 8-13.34 18.2-13.34 18.2 8.94 2.94 16.36 22.52 15.61 45.18z" fill="#c4946e" transform="matrix(-1.2768 0 0 1.2768 1012.319 -393.7751)"/><path d="m428.33 421.33c-.23-9.8 3.75-11.92 16.58-8.35s16.5 7.25 20.83 7.25 12.42-5.11 19.13-5.13 10.57 1.77 10.94 7.77-3.89 8.83-11.14 7.87-14.79-4.34-20.3-3.94-12.32 2.87-22.43 3.94-13.43-1.69-13.61-9.41z" fill="#b68665" transform="matrix(-1.2768 0 0 1.2768 1012.319 -393.7751)"/><path d="m448.84 424.53c2.176 0 3.94-1.764 3.94-3.94s-1.764-3.94-3.94-3.94-3.94 1.764-3.94 3.94 1.764 3.94 3.94 3.94z" fill="#411714" transform="matrix(-1.2768 0 0 1.2768 1012.319 -393.7751)"/><path d="m487.38 425.66c2.176 0 3.94-1.764 3.94-3.94s-1.764-3.94-3.94-3.94-3.94 1.764-3.94 3.94 1.764 3.94 3.94 3.94z" fill="#411714" transform="matrix(-1.2768 0 0 1.2768 1012.319 -393.7751)"/><path d="m460.42 452.8s-2.1-1.17-2.17-4.79c-.04-2.32 2.55-2.18 4.27-1.12 1.73 1.06 3.84 3.71 3.84 3.71s2.68-4.21 5.35-3.16 1.27 4.12-.75 4.73c-4.14 1.24-10.54.63-10.54.63z" fill="#b68665" transform="matrix(-1.2768 0 0 1.2768 1012.319 -393.7751)"/><path d="m440.3 416.83c-.25-.85 1.89-3.8 4.61-3.85s4.8 2.84 4.6 3.25c-.3.6-3.13-1.29-4.67-1.29-1.54-.01-4.41 2.33-4.54 1.89z" fill="#411714" transform="matrix(-1.2768 0 0 1.2768 1012.319 -393.774972)"/><path d="m480.26 418.94c-.25-.85 1.89-3.8 4.61-3.85s4.8 2.84 4.6 3.25c-.3.6-3.13-1.29-4.67-1.29s-4.41 2.34-4.54 1.89z" fill="#411714" transform="matrix(-1.2768 0 0 1.2768 1012.319 -393.774972)"/><path d="m460.42 452.8c-1.58-1.03-2.99-2.31-4.11-3.97-.52-.84-1.04-1.8-1.06-3.04-.01-.61.14-1.28.47-1.85.35-.58.73-1 1.23-1.38.5-.37 1.14-.64 1.79-.74.66-.11 1.31-.03 1.88.13 1.16.31 2.09.9 2.9 1.53 1.62 1.3 2.85 2.77 3.98 4.44l-2.37.02c.53-.81 1.07-1.46 1.7-2.13.62-.66 1.34-1.26 2.18-1.77.83-.5 1.87-.91 3.03-.86.57.02 1.15.18 1.65.43.49.26.91.58 1.28.95.74.74 1.26 1.88 1.15 2.97-.07 1.08-.58 2-1.21 2.68-1.29 1.36-3 1.98-4.65 2.18 1.47-.75 2.84-1.73 3.58-2.99.36-.62.57-1.29.48-1.86-.08-.57-.36-1.03-.83-1.4-1.02-.79-1.96-.67-3.1.1-1.08.76-2.12 2.01-2.88 3.2l-1.15 1.78-1.22-1.76c-.95-1.37-2.12-2.77-3.36-3.83-.62-.52-1.28-.97-1.89-1.19-.63-.23-1.11-.19-1.62.09-.59.36-.95.72-1.03 1.35-.09.63.07 1.46.4 2.25.65 1.6 1.69 3.15 2.78 4.67z" fill="#401713" transform="matrix(-1.2768 0 0 1.2768 1012.319 -393.7751)"/><path d="m396.61 407.99-5.45 15.69c0 .01 0 .01-.01.02l-4.37 12.6c-4.45-4.57-10.01-16.43-9.48-24.94v-.01c.08-1.36.32-2.64.74-3.78 0-.01 0-.01 0-.01.75-2.05 2.09-3.68 4.19-4.67 10.62-4.95 14.38 5.1 14.38 5.1z" fill="#c4946e" transform="matrix(-1.2768 0 0 1.2768 1012.319 -393.7751)"/><path d="m543.89 673.2c-1.77 6.5-4.21 11.95-7.55 15.49 0 0 7.55 9.83-5.97 46.68-11.59 31.61-22.25 64.27-22.25 64.27h-151.55l-.01-.02c-.12-1.13-4.48-37.42-26.19-84.66-7.67-4.6-18.81-16.59-23.5-22.24 0-.01 0-.01 0-.01-1.11-1.33-1.85-2.31-2.11-2.76 0-.01-1.02-18.35-1.99-34.31-.18-2.97-.36-5.86-.53-8.53-3-46.89 16.53-66.1 58-75.51 8.83-2 18.67-3.56 29.5-4.85.08-.01.17-.02.25-.03 34.84-5.62 77.48 3.94 108.66 14.76 3.97 1.38 7.92 2.34 11.6 3.49 21.67 6.77 36.43 12.73 36.43 12.73s4.81 47.54-2.79 75.5z" fill="#59311e" transform="matrix(-1.2768 0 0 1.2768 1012.319 -393.7751)"/><path d="m620.84 1046.61s-14.16 8.36-34.28 11.59-53.49-8.28-64.09-6.96c-10.6 1.33-54.15 2.24-59.36-5.75-3.88-5.95.15-34.46 2.47-48.7.8-4.92 1.4-8.14 1.4-8.14s-4.31-6.27-8.96-14.4c-6-10.46-12.57-23.99-11.32-31.18 2.24-12.79 11.92-22.39 11.92-22.39l-21.94-45.35c-16.39 37.97-41.39 62.29-41.39 62.29.13 5.04 1.24 8.47 1.03 12.86-1 20.65-6.24 34.98-6.24 34.98-.34.63-.81 1.24-1.41 1.84-9.02 9.22-45.27 15.69-51.6 31.82-.1.25-.18.49-.26.74-.33.98-.54 1.99-.64 3.05-1.74 20.12 13.66 53.65 13.66 53.65-58.86 22.36-108.45 0-108.45 0-1.18-16.92.75-33.14 4.67-48.33 1.39-5.37 3.03-10.61 4.87-15.71l.01-.01c2.7-7.48 5.84-14.67 9.25-21.5 1.85-3.72 3.79-7.33 5.79-10.83 23.04-40.41 53.72-66.06 53.72-66.06 11.18-42.47 36.87-82.57 36.87-82.57-3-9.55 0-31.92 0-31.92h151.55l1.77 20.78c11.92 15.57 20.96 67.56 20.96 67.56s6.29 6.3 6.29 12.26-3.64 11.59-3.64 11.59c.77 4.64 8.82 26.59 15.38 44.07 1.41 3.77 2.76 7.32 3.94 10.45.01.01.01.01.01.01 2.75 7.24 4.67 12.2 4.67 12.2 2.79 1.01 6.28 3.39 9.98 6.42 11.74 9.64 25.53 25.87 25.53 25.87 14.66.25 26.08 10.18 26.08 10.18z" fill="#9f8f6b" transform="matrix(-1.2768 0 0 1.2768 1012.319128 -393.7751)"/><g transform="matrix(-1.2768 0 0 1.2768 1012.319 -393.7751)"><path d="m488.44 616.78s-133.48-13.79-135.13-20.96c-.54-2.37-4.71-10.71-10.18-21.21l-3.61-18.51s15.56-83.57 26.45-140.74c-1.06 6.08-12.39 75.62 17.13 114.18 30.89 40.35 98.25 75.8 127.73 38.22 29.47-37.59-22.39 49.02-22.39 49.02z" fill="#4c281a"/><path d="m356.57 799.64-.01-.02c-.12-1.13-4.48-37.42-26.19-84.66-7.6-4.57-18.62-16.38-23.38-22.09-.04-.05-.08-.1-.11-.15 0 0 .01-.01.03-.03.02-.01.03-.02.05-.04.62-.5 4.73-3.87 9.98-9.1 11.81-11.72 25.52-25.4 28.09-50.57 10.85 31.11 11.55 166.66 11.54 166.66z" fill="#d3d8d8"/><path d="m548.18 678.23c-1.42-1.58-2.85-3.24-4.29-5-.01-.02-.01-.02-.01-.02s9.43-29.59 4.68-59.99c.48 2.41 5.25 26.77 7.25 50.36-8.1 7.61-7.63 14.65-7.63 14.65z" fill="#d3d8d8"/><path d="m547.3 605.35c.82 2.73 1.37 5.54 1.81 8.36.46 2.82.77 5.66 1.01 8.51.45 5.7.49 11.42.28 17.14-.14 2.86-.3 5.71-.6 8.56-.23 2.85-.61 5.69-1 8.52-.37 2.84-.94 5.64-1.4 8.46-.54 2.81-1.16 5.6-1.76 8.39l-.21-.86 3.13 3.69-1.69.63c.03-.71.12-1.25.25-1.84.12-.58.29-1.14.47-1.7.37-1.11.85-2.17 1.41-3.17 1.1-2.03 2.53-3.84 4.09-5.49 3.15-3.29 6.94-5.83 10.9-7.89 3.97-2.06 8.16-3.65 12.42-4.89s8.59-2.22 12.96-2.92c-4.29 1.06-8.56 2.22-12.71 3.71-4.14 1.48-8.21 3.17-12.01 5.34-3.82 2.11-7.36 4.72-10.3 7.85-1.45 1.58-2.75 3.3-3.72 5.18-.5.93-.91 1.9-1.24 2.89-.32.96-.57 2.06-.6 2.94l-.11 2.47-1.59-1.84-3.16-3.66-.31-.36.1-.5 1.75-8.32c.47-2.79 1.05-5.57 1.43-8.38.4-2.8.85-5.6 1.12-8.42.36-2.81.54-5.64.77-8.46.35-5.65.51-11.32.31-16.99-.18-5.69-.66-11.37-1.8-16.95z" fill="#b0b0b0"/><path d="m500.01 519.74c-5.96 3.92-14.05 6.79-24.91 8.65-37.59 6.44-73.11-15.27-71.18-38.54 1.89-22.84 18.95-44.7 19.57-45.48 0-.01.01-.01.01-.01-.52.83-21.69 34.46.65 58.98 22.61 24.82 64.98 22.34 75.86 16.4z" fill="#b68665"/><path d="m391.15 423.7-4.37 12.6c-4.45-4.57-10.01-16.43-9.48-24.94.06.51 2.08 10.08 3.88 12.27 3.48 4.25 6.42 5.14 9.97.07z" fill="#b68665"/></g><path d="m507.57 363.67c-.43-1.14-14.27-37.83-45.49-41.45-31.06-3.6-56.09 2.95-74 19.66 16.37-20.8 45.04-34.81 77-29.04 27.48 4.97 38.26 31.21 42.49 50.83z" fill="#714233" transform="matrix(-1.2768 0 0 1.2768 1012.319 -393.775228)"/><path d="m322.85 939.17s-21.83 27.64-27.4 37.96c0 0 22.61-5.67 43.53 13.9-.59-.36-22.29-13.46-56.83-9.92l40.82-52.95-44.4 52.95-17.06 7.34c18.71-40.43 58.2-74.31 58.2-74.31 11.18-42.47 36.87-82.57 36.87-82.57-3-9.55 0-31.92 0-31.92h38.34c16.17 7.11 29.01 12.96 29.01 12.96l-47.09 21.51 2.41 48.7z" fill="#897b5a" transform="matrix(-1.2768 0 0 1.2768 1012.319 -393.7751)"/><path d="m388.68 987.32c-9.02 9.22-45.27 15.69-51.6 31.82-.1.25-.18.49-.26.74-.48-2.54-.36-5.29-.36-5.29s12.16-10.04 11.71-11.42-5.45-9.1-5.45-9.1 9.08 1.65 10.73-3.72c1.65-5.38-9.03-11.97-9.03-11.97s20.62.52 22.96.66c1.6.09 13.81 5.13 21.3 8.28z" fill="#897b5a" transform="matrix(-1.2768 0 0 1.2768 1012.318872 -393.7751)"/><path d="m552.83 966.35c-1.04-.25-3.58-.57-9.6-.54-9.23.05-32.71 11.68-33.44 12.04 9.94-7.93 31.56-14.17 31.56-14.17-8.33-5.02-32.12-1.42-32.12-1.42-9.1 2.21-23.54 9.74-26.75 13.61-3.22 3.86-2.48 11.49-.09 11.58s13.97-3.59 13.97-3.59-13.15 5.7-11.68 7.17 8 4.96 17.84 6.07c9.69 1.09 25.82-11.53 26.3-11.91-.17.37-5.75 12.25-8.74 16.33-3.03 4.14-22.43 4.78-22.43 4.78l-32.05-9.51c.8-4.92 1.4-8.14 1.4-8.14s-4.31-6.27-8.96-14.4l4.58-8.5 69.41-16.18 16.86 6.31c1.41 3.78 2.76 7.33 3.94 10.47z" fill="#897b5a" transform="matrix(-1.2768 0 0 1.2768 1012.319 -393.7751)"/><path d="m320.85 998.09s-65.72 31.66-72.71 30.55c-.65-.1-1.35-.23-2.07-.39 1.39-5.37 3.03-10.61 4.87-15.71l.01-.01c2.7-7.48 5.84-14.67 9.25-21.5 0 0 7.98-3.53 14.79-4.84l-7.39 14.49c.65-.31 30.1-14.71 53.25-2.59z" fill="#897b5a" transform="matrix(-1.2768 0 0 1.2768 1012.319 -393.7751)"/><path d="m567.48 984.97c-3.09 1.16-7.19 2.11-8.61 2.11-2.57 0-13.62-9.81-13.62-9.81l-4.87-10.63c10.27-2.48 12.3-.47 12.45-.3.01.01.01.01.01.01 2.75 7.24 4.67 12.2 4.67 12.2 2.78 1.01 6.27 3.39 9.97 6.42z" fill="#c0ab86" transform="matrix(-1.2768 0 0 1.2768 1012.319 -393.7751)"/><path d="m218.64 599.75c4.4-2.11 27.92-15.88 27.92-15.88l52.95 20.56 7.36 66.19-60.31 40.82s-35.85-58.6-38.06-66.53c-2.2-7.94 10.14-45.16 10.14-45.16z" fill="#59311e" transform="matrix(-1.2768 0 0 1.2768 1012.318872 -393.7751)"/><path d="m623.45 648.37-.01 9.78s-1 40.32-10.92 61.73c0 0 0 0-.01.01-1.88 4.07-4.08 7.46-6.67 9.75-16.11 14.29-37.97 17.31-54.13 9.44-.07-.03-.14-.06-.21-.1-5.09-2.51-8.26-11.21-10.14-22.02-4.08-23.54-2.05-57.14-.41-58.81 2.15-2.2 25.31-24.26 37.57-28.29 1.26-.41 2.4-.64 3.39-.64 10.7.03 26.14 9.29 29.82 11.83s11.72 7.32 11.72 7.32z" fill="#59311e" transform="matrix(-1.2768 0 0 1.2768 1012.318872 -393.7751)"/><path d="m597.06 646.9s1.47 24.27-3.7 60.67c0 0-19.83-61.25-18.04-61.86 1.79-.6 21.74 1.19 21.74 1.19z" fill="#4c281a" transform="matrix(-1.2768 0 0 1.2768 1012.319128 -393.7751)"/><g transform="matrix(-1.2768 0 0 1.2768 1012.319 -393.7751)"><path d="m623.59 657.35-.01.02s-3.16-17.38-39.84-8c-14.17 3.62-22.68 8.63-27.78 13.42-8.11 7.62-7.64 14.66-7.64 14.66-1.42-1.58-2.85-3.24-4.29-5-.01-.02-.01-.02-.01-.02-1.77 6.5-4.21 11.95-7.55 15.49 0 0 7.55 9.83-5.97 46.68-11.59 31.61-22.25 64.27-22.25 64.27h-151.54l-.01-.02c-.12-1.13-4.48-37.42-26.19-84.66-5.51-3.31-12.81-10.42-18.23-16.26-2.05-2.22-3.84-4.26-5.15-5.83-.04-.05-.08-.1-.12-.15 0 0 .01-.01.03-.03.02-.01.03-.02.05-.04l-16.65-20.11s-.73-18.97-16.53-43.3c-16.18-24.92-55.14-29.5-55.14-29.5.07-.18 1.87-1.83 4.8-4.44 0 0 .01 0 .01-.01 13.2-11.81 49.22-43.08 52.02-45.61.02-.02.05-.05.07-.06 6.34-5.83 47.91-20.88 70.51-27.3.18-.05.37-.11.55-.15.66 1.2 1.37 2.42 2.13 3.65.19.31.38.61.58.93.59.93 1.2 1.86 1.85 2.8 2.9 4.24 6.35 8.53 10.26 12.81.02.02.03.04.05.05 7.81 8.54 17.47 16.95 28.29 24.35 24.45 16.72 54.88 28.29 83.74 24.65 10.5-1.33 18.73-4.96 25.17-9.91 3.66-2.82 6.75-6.06 9.35-9.56 10.4-13.98 13.02-31.94 13.6-42.37.29-5.22.08-8.57.08-8.57 22.46 6.37 66.89 19.8 71 27.44 4.73 8.82 26.8 24.63 30.3 90.58.3 5.94.47 12.3.46 19.1z" fill="#eaf1f4"/><path d="m551.82 963.68s-7.75-6.36-24.15-6.34c-6.55.01-14.47 1.03-23.83 3.88 0 0 0 0-.01.01-5.7 1.73-11.93 4.14-18.7 7.42-45.64 22.04-68.8 35.82-110.47 18.97-.05-.02-.07-.02-.07-.02-.1-.05-.21-.09-.34-.14-1.07-.44-2.14-.86-3.18-1.26-39.78-15.41-59.15-7.56-59.15-7.56s3.9-41.26 29.23-67.3c59.02-60.68 28.68-107.01 28.68-107.01l-10.42-3.67-2.87-1.01-.03-.17-6.04-28.97.32.1c.7.22 2.55.79 5.36 1.6 14.43 4.16 54.26 14.69 94.75 17.04 18.03 1.04 31.21.4 40.83-1.2 17.46-2.88 23.17-8.86 24.76-13.48l-1.98 26.07s26.72 35.8 27.85 88.33c1.17 52.52 14.37 51.49 9.46 74.71z" fill="#33c0cd"/><path d="m441.7 819.74s-40.4-1.71-42.61 2.47-30.61 51.94-32.54 69.98c-1.93 18.03-20.69 65.75-15.44 75.95 4.64 9.05 11.81 14.52 19.99 18.04-39.78-15.41-59.15-7.56-59.15-7.56s3.9-41.26 29.23-67.3c59.02-60.68 28.68-107.01 28.68-107.01l-10.42-3.67c1.36-3.6 2.13-5.67 2.13-5.67s34.4 14.01 34.95 14.71c.55.71 45.18 10.06 45.18 10.06z" fill="#35bac1"/><path d="m491.78 813.17c-1.04.45-21.74 9.16-60.83 5.3-28.91-2.84-59.54-13.35-74.41-19l-6.04-28.97.32.1 5.36 1.59v.01c.09.51 3.97 22.53 23.6 28.53 19.85 6.07 72.49 23.73 112 12.44z" fill="#35bac1"/><path d="m551.82 963.68s-7.75-6.36-24.15-6.34c13.78-1.42 10.41-6.02 7.39-12.08-3.03-6.07 2.76-37.78 1.1-59.57-1.65-21.79-18.75-42.47-21.6-58.61-2.85-16.13-15.61-17.08-15.61-17.08 7.17-3.17 4.81-11.61 4.12-17.4s-11.29-4.54-11.29-4.54 0 0 0-.01c17.46-2.88 23.17-8.86 24.76-13.48l-1.98 26.07s26.72 35.8 27.85 88.33c1.12 52.52 14.32 51.49 9.41 74.71z" fill="#6fccd9"/><path d="m356.57 799.64c6.51 2.17 13.05 4.24 19.65 6.09 6.58 1.91 13.2 3.7 19.86 5.26 13.32 3.14 26.76 5.91 40.37 7.04 3.4.25 6.8.65 10.2.65l5.11.13 5.1-.22 2.55-.11c.85-.05 1.7-.17 2.55-.25l5.09-.53 5.06-.73c1.7-.2 3.37-.53 5.05-.84 6.71-1.23 13.35-2.93 19.72-5.38l2.39-.91 2.34-1.03c.79-.33 1.56-.7 2.31-1.1.76-.4 1.54-.74 2.27-1.18.74-.43 1.49-.83 2.22-1.28.71-.47 1.45-.9 2.15-1.4 1.41-.97 2.78-2 3.99-3.22-2.32 2.54-5.16 4.57-8.09 6.35-.72.47-1.49.86-2.24 1.29s-1.51.84-2.29 1.21l-2.32 1.14-2.37 1.03c-6.37 2.66-13.04 4.55-19.78 5.97-3.36.79-6.78 1.24-10.19 1.78l-5.14.58c-.86.09-1.71.21-2.57.27l-2.59.13-5.18.26-5.18-.08c-3.46.03-6.89-.34-10.33-.57-1.72-.11-3.43-.37-5.14-.58l-5.13-.66c-3.4-.57-6.8-1.09-10.18-1.74-3.37-.7-6.76-1.29-10.1-2.11l-5.03-1.16-4.99-1.31c-13.29-3.48-26.39-7.68-39.14-12.79z" fill="#2eadad"/><path d="m289.87 672.96s.47-17.71-7.74-31.1c0 0 19.74 2.7 31.05-12.61 0 0-3.43 54.06 10.76 65.09s-20.91 17.1-20.91 17.1z" fill="#d4dadd"/><path d="m371.92 725.71s14.91 22.7 7.37 49.39-29.84 57.81-39.03 60.43-50.4-16.31-50.4-16.31l-5.08-22.48z" fill="#b68665"/></g><path d="m326.87 801.53c-38.38 5.33-80.08-17.11-121.09-69.56-41-52.43-30.16-76.84-22.09-90.96 1.76-3.1 4.44-6.81 7.52-10.73h.01c.01-.01.01-.01.01-.01 11.02-13.97 27.42-30.53 27.42-30.53l10.66 43.5s9.35 4.15 23.28 10.76c37.07 17.54 106.65 52.36 119.38 72.19v.01c1.1 1.7 1.76 3.29 1.96 4.75 3.36 24.87-35.08 68.92-47.06 70.58z" fill="#59311e" transform="matrix(-1.2768 0 0 1.2768 1012.319128 -393.7751)"/><path d="m349.85 1076.58c-58.86 22.36-108.45 0-108.45 0-.68-9.81-.32-19.39.87-28.67.38-2.97.85-5.92 1.39-8.83 0-.03.01-.06.02-.08 1.72-9.18 4.21-18.02 7.26-26.47l.01-.01c3.14-2.66 16.49-12.1 35.57-15.86 4.9-.96 10.18-1.55 15.77-1.55 2.83 0 5.45.15 7.84.44 27.62 3.24 26.96 23.58 26.96 23.58-.48 1.21-.78 2.47-.9 3.79-1.74 20.13 13.66 53.66 13.66 53.66z" fill="#4a4744" transform="matrix(-1.2768 0 0 1.2768 1012.319 -393.7751)"/><path d="m620.84 1046.61s-14.16 8.36-34.28 11.59-53.49-8.28-64.09-6.96c-10.6 1.33-54.15 2.24-59.36-5.75-5.22-8 3.88-56.84 3.88-56.84s9.32 11.67 32.49 14.24c12.3 1.37 19.05-8.08 27.37-15.91.12-.12.19-.18.19-.18 7.32-6.85 15.87-12.39 30.46-8.25 11.67 4.22 35.52 32.29 35.52 32.29 14.66.25 26.08 10.18 26.08 10.18z" fill="#4a4744" transform="matrix(-1.2768 0 0 1.2768 1012.318872 -393.775228)"/><path d="m622.98 639.02c-15.4-9.6-40.37-5.01-41.16-4.87 8.56-4.54 27.43-1.92 27.43-1.92-1.65-41.65-19.88-72.02-19.88-72.02-6.27 12.72-18.62 30.1-19 30.64.22-.84 9.84-37.28 3-42.18-6.76-4.85-49.76-18.46-51.77-19.09.29-5.22.08-8.57.08-8.57 22.46 6.37 66.89 19.8 71 27.44 4.73 8.81 26.8 24.62 30.3 90.57z" fill="#fdfefe" transform="matrix(-1.2768 0 0 1.2768 1012.319 -393.7751)"/><path d="m540.85 630.64c.18-1.13.55 30.05-3.59 37.22s-14.62 14.04-30.06 14.88c.01 0 29.24-24.78 33.65-52.1z" fill="#fdfefe" transform="matrix(-1.2768 0 0 1.2768 1012.319 -393.774972)"/><g transform="matrix(-1.2768 0 0 1.2768 1012.319 -393.7751)"><path d="m501.7 776.88s18.57-73.72 7.16-94.51c0 0 22.79 6.62 20.96 23.9-1.85 17.29-28.12 70.61-28.12 70.61z" fill="#fdfefe"/><path d="m311.65 593.75c-9.24-31.76-29.4-36.54-29.4-36.54-7.25 5.39-41.17 26.66-58.81 38.09 13.2-11.81 49.22-43.08 52.02-45.61.02-.02.05-.05.07-.06 6.34-5.83 47.91-20.88 70.51-27.3.18-.05.37-.11.55-.15.66 1.2 1.37 2.42 2.13 3.65.19.31.38.61.58.93.59.93 1.2 1.86 1.85 2.8-12.99 1.02-59.81 21.05-59.81 21.05 22.58 19.9 20.14 41.99 20.31 43.14z" fill="#fdfefe"/><g fill="#35c0cd"><path d="m505.93 631.19 1.76-1.9h-1.08l-1.75 1.92-.01.01v-1.93h-.56l-.31.41v4.36h.87v-1.71l.01-.01.45-.49 1.36 2.21h1.07z"/><path d="m502.72 631.01c-.23-.26-.55-.39-.97-.39-.27 0-.5.06-.69.17-.2.12-.35.27-.45.47l-.07-.57h-.76v3.36h.86v-1.74c0-.31.08-.55.23-.72s.36-.26.6-.26c.25 0 .43.07.55.23.12.15.17.37.17.67v1.82h.86v-1.9c.02-.5-.1-.88-.33-1.14z"/><path d="m510.7 630.69-.05.46c-.12-.17-.27-.3-.46-.4-.19-.09-.41-.14-.67-.14-.32 0-.6.07-.84.23-.25.15-.45.36-.59.62s-.22.57-.22.91.07.64.22.91c.14.27.34.48.59.63s.53.23.84.23c.28 0 .52-.05.69-.17.18-.11.32-.24.43-.39l.05.48h.81v-3.36zm-.3 2.41c-.18.19-.41.28-.68.28s-.5-.09-.68-.28-.27-.43-.27-.73.09-.53.27-.72c.18-.18.41-.28.68-.28.28 0 .51.09.68.28.18.19.27.43.27.72-.01.3-.1.54-.27.73z"/><path d="m515.34 631.01c-.23-.26-.55-.39-.97-.39-.27 0-.5.06-.69.17-.2.12-.35.27-.45.47l-.07-.57h-.76v3.36h.86v-1.74c0-.31.08-.55.23-.72s.36-.26.6-.26c.25 0 .43.07.55.23.12.15.17.37.17.67v1.82h.86v-1.9c.01-.5-.1-.88-.33-1.14z"/><path d="m518.61 631.42v-.73h-.91v-1.05h-.35l-.42.55v.5h-.67v.73h.58v1.47c0 .44.1.74.32.92.21.17.5.26.84.26h.59v-.74h-.42c-.17 0-.29-.03-.36-.09s-.1-.17-.1-.33v-1.47z"/><path d="m522.37 631.42c-.14-.25-.34-.45-.59-.59s-.55-.22-.87-.22c-.35 0-.66.07-.92.23-.26.15-.46.36-.61.63s-.22.58-.22.93c0 .34.07.65.22.91s.35.47.62.61c.26.14.56.22.9.22.27 0 .51-.05.73-.15.21-.1.4-.23.54-.41.15-.17.25-.37.31-.58h-.88c-.06.12-.15.23-.27.31s-.27.12-.44.12c-.23 0-.43-.07-.6-.22-.16-.15-.26-.35-.27-.62h2.55c.01-.06.01-.11.01-.17s0-.1 0-.15c0-.32-.07-.6-.21-.85zm-2.34.63c.04-.24.15-.43.31-.55s.35-.18.56-.18c.19 0 .36.05.5.15.02.01.04.03.06.04.08.07.14.15.18.24.04.08.06.18.06.29h-1.67z"/><path d="m526.42 631.42c-.14-.25-.34-.45-.59-.59s-.54-.22-.87-.22c-.35 0-.66.07-.92.23-.26.15-.46.36-.61.63s-.22.58-.22.93c0 .34.07.65.22.91s.35.47.62.61c.26.14.56.22.9.22.27 0 .51-.05.73-.15.21-.1.39-.23.54-.41.15-.17.25-.37.31-.58h-.88c-.06.12-.15.23-.27.31s-.27.12-.44.12c-.23 0-.44-.07-.6-.22s-.26-.35-.27-.62h2.55c0-.06.01-.11.01-.17s0-.1 0-.15c0-.32-.07-.6-.21-.85zm-2.34.63c.04-.24.15-.43.31-.55s.35-.18.56-.18c.22 0 .41.06.56.2.15.13.23.31.24.53z"/><path d="m530.3 631.01c-.23-.26-.55-.39-.97-.39-.27 0-.5.06-.69.17-.2.12-.35.27-.45.47l-.07-.57h-.76v3.36h.86v-1.74c0-.31.08-.55.23-.72s.36-.26.6-.26c.25 0 .43.07.55.23.12.15.17.37.17.67v1.82h.86v-1.9c.01-.5-.1-.88-.33-1.14z"/><path d="m498.87 634.06v-.06-3.85-.93h-.56l-.31.41v.52 3.91z"/></g><g fill="#34c0ce"><path d="m517.97 611.22c-.33 0-.65.06-.95.17-.03.01-.06.02-.09.04-.75.29-1.64.45-2.61.45-.93 0-1.8-.16-2.53-.43-.01-.01-.04-.01-.05-.02-.04-.01-.06-.03-.1-.04h-.01c-.29-.11-.62-.17-.95-.17-1.56 0-2.83 1.25-2.85 2.81v.05c0 1.35.93 2.48 2.2 2.79h.01c.17.04.24.24.13.37-.73.91-1.16 2.07-1.16 3.32 0 .19.01.38.03.56v.02c.05.5.42.9.9 1.02.43.1 1.74.17 3.22.19.37.01.75.01 1.13.01h.72c1.68-.01 3.22-.08 3.7-.19.48-.12.85-.52.9-1.01v-.01c.02-.19.03-.39.03-.58 0-1.25-.43-2.4-1.16-3.32-.11-.14-.04-.33.13-.37h.01c1.26-.3 2.2-1.43 2.2-2.79 0-.01 0-.04 0-.05-.03-1.56-1.29-2.82-2.85-2.82zm0 1c1.01 0 1.84.82 1.86 1.83v.04c0 .86-.59 1.61-1.43 1.81-.01 0-.03.01-.04.01-.39.11-.71.4-.84.78-.14.4-.06.84.2 1.17.61.78.94 1.71.94 2.7 0 .15-.01.3-.02.46v.02c-.01.06-.06.13-.14.15-.28.06-1.49.15-3.48.17-.24 0-.47 0-.71 0-.39 0-.76 0-1.12-.01-1.97-.03-2.81-.12-3.01-.16-.08-.02-.14-.08-.15-.15 0-.01 0-.01 0-.03 0-.01 0-.01 0-.01-.01-.14-.02-.3-.02-.44 0-.99.32-1.92.93-2.7.27-.33.34-.77.2-1.17-.14-.39-.45-.68-.84-.78-.01-.01-.03-.01-.04-.01-.84-.2-1.42-.94-1.43-1.81 0-.01 0-.02 0-.04.01-1.01.85-1.83 1.86-1.83.2 0 .4.04.6.1l.02.01c.03.01.06.02.09.04.02.01.04.02.07.03.87.32 1.86.49 2.86.49 1.04 0 2.06-.18 2.94-.52.04-.01.06-.02.1-.04.19-.08.39-.11.6-.11z"/><path d="m515.84 613.95c-.15.61.32 1.21.97 1.17.29-.01.57-.18.74-.43.11-.18.16-.37.15-.55-.01-.16-.12-.3-.28-.32-.14-.02-.37-.04-.72-.04-.89.02-.86.17-.86.17z"/><path d="m512.85 613.95c.15.61-.32 1.21-.97 1.17-.29-.01-.57-.18-.74-.43-.11-.18-.16-.37-.15-.55.01-.16.12-.3.28-.32.14-.02.37-.04.72-.04.89.02.86.17.86.17z"/><path d="m515.82 617.23c.09 0 .18.04.25.1.22.22.34.51.35.82.01.34-.11.65-.34.89s-.55.37-.88.37c-.27 0-.55-.09-.76-.27-.06-.05-.16-.05-.22 0-.22.17-.49.27-.76.27-.33 0-.65-.13-.88-.37s-.35-.55-.34-.89c.01-.27.11-.53.28-.75.12-.15.34-.17.49-.05s.17.35.04.49c-.08.09-.11.2-.12.32 0 .14.05.28.15.38.19.19.5.21.7.04.32-.25.78-.25 1.08 0 .21.17.52.14.7-.04.1-.1.15-.24.15-.38-.01-.13-.06-.25-.15-.35-.14-.14-.14-.36 0-.5.08-.04.16-.08.26-.08z"/></g></g><path d="m518.37 623.35c.33 0 .45.43.17.61-.04.02-.06.04-.1.06-.85.48-2.31.8-3.87.82-1.95.03-3.58-.35-4.45-.89-.28-.17-.17-.61.17-.61 2.64.02 5.38.02 8.08.01z" fill="#34c0ce" transform="matrix(-1.2768 0 0 1.2768 1012.318872 -393.7751)"/><g transform="matrix(-1.2768 0 0 1.2768 1012.319 -393.7751)"><path d="m516.91 625.65c.22 0 .29.26.11.36-.02.01-.04.02-.06.04-.55.28-1.48.47-2.48.48-1.25.01-2.29-.2-2.86-.52-.18-.1-.11-.36.11-.36 1.7.01 3.45.01 5.18 0z" fill="#34c0ce"/><path d="m514.32 604.43c-4.95 0-8.97 4.04-8.97 9 0 1.85.56 3.63 1.62 5.15.09.12.22.21.37.23s.31-.01.43-.11c.24-.19.29-.53.11-.78-.97-1.4-1.45-3.03-1.4-4.74.13-4.1 3.43-7.44 7.52-7.6 2.15-.09 4.2.69 5.75 2.19s2.41 3.51 2.41 5.67c0 1.61-.49 3.17-1.4 4.49-.17.25-.12.59.11.78.1.08.22.12.34.12.03 0 .06 0 .09-.01.15-.02.29-.11.37-.23 1.06-1.51 1.62-3.3 1.62-5.15.01-4.97-4.02-9.01-8.97-9.01z" fill="#34c0ce"/><path d="m503.85 961.22c-5.71 1.74-11.94 4.15-18.71 7.42-45.64 22.04-68.8 35.82-110.47 18.97 1.56.47 29.37 7.88 48.12-57.53 8.51-29.69 24.29-61.29 24.29-61.29s1.56 105.92 56.77 92.43z" fill="#35bac1"/><path d="m349.85 1076.58c-58.86 22.36-108.45 0-108.45 0-.68-9.81-.32-19.39.87-28.67.38-2.97.85-5.92 1.39-8.83-.14-.38-.28-.77-.4-1.16.13.36.27.72.41 1.08 3.18 7.66 11.31 14.81 23.33 18.85 8.6 2.89 19.21 4.19 31.42 2.96 30.06-3.03 28.96-16.82 26.75-17.93-2.21-1.1-21.24 0-21.24 0s16.91-9.93 16.91-20.69c0-22.91-11.62-26.15-11.62-26.15l.9-.5c27.62 3.24 26.96 23.58 26.96 23.58-.48 1.21-.78 2.47-.9 3.79-1.73 20.14 13.67 53.67 13.67 53.67z" fill="#383433"/><path d="m273.78 629.25s2.39 3.13-1.84 7.35c-4.23 4.23-15.86 13.46-38.96 11.05l57.73 24.17s-4.06-27.13-16.93-42.57z" fill="#4c281a"/><path d="m363.51 742.99s-5.79-15.28-17.03-27.04c-11.15-11.68-106.28-64.58-107.76-65.4.35.08 6.36 3.79 14.49 5.82 44.11 18.54 106.03 50 118.76 69.83v.01c.9 10.39-8.46 16.78-8.46 16.78z" fill="#714233"/><path d="m289.32 1057.78s-10.91 2.34-22.32.08c-9.36-1.86-19.07-6.83-23.34-18.77-.14-.38-.28-.77-.4-1.16.13.36.27.72.41 1.08 1.72-9.18 4.21-18.02 7.26-26.47l.01-.01c3.14-2.66 16.49-12.1 35.57-15.86.01.01.02.01.02.01s-11 4.29-13.32 23.21c-.88 7.22 2.31 20.8 11.42 23.01 0 0-16-1.85-18.75-1.85-2.76-.01 8.88 14.48 23.44 16.73z" fill="#5a5857"/><path d="m301.95 651.68c-.67 1.81-1.4 3.6-2.18 5.36-.78 1.77-1.57 3.53-2.43 5.27-1.74 3.46-3.6 6.87-6.01 10.01l-1.14 1.49-.27-1.92c-.75-5.33-2.02-10.66-3.55-15.85-1.56-5.2-3.43-10.3-5.75-15.2-1.13-2.46-2.42-4.85-3.78-7.19-1.34-2.35-2.87-4.59-4.48-6.78-1.59-2.2-3.39-4.24-5.23-6.24-1.87-1.99-3.93-3.77-6.04-5.52 4.61 2.96 8.77 6.7 12.28 10.97 3.53 4.26 6.48 8.99 8.93 13.95 2.44 4.97 4.43 10.15 5.94 15.46 1.53 5.31 2.68 10.7 3.27 16.24l-1.41-.42c1.21-1.44 2.3-3 3.35-4.59 1.06-1.59 2.04-3.24 3.01-4.89.98-1.65 1.91-3.33 2.83-5.03.88-1.7 1.78-3.4 2.66-5.12z" fill="#b0b0b0"/></g><path d="m620.84 1046.61s-14.16 8.36-34.28 11.59-53.49-8.28-64.09-6.96c-10.6 1.33-54.15 2.24-59.36-5.75-5.22-8 3.88-56.84 3.88-56.84s9.32 11.67 32.49 14.24c12.39 1.38 19.15-8.23 27.56-16.1l.87.28 37.39 30.87-12.47 12.16s67.1 6.83 66.26-9.09z" fill="#383433" transform="matrix(-1.2768 0 0 1.2768 1012.318872 -393.7751)"/><path d="m619.1 1021.02c-.36 12.06-30.25 10.45-30.25 10.45 12.69-1.2 15.8-9.45 9.37-12.21-6.44-2.76-32.91-1.31-32.91-1.31l-33.82-27.92c-5.97 2.95-17.43 15.85-17.79 16.26 5.37-11.41 11.97-18.15 13.15-19.31.12-.12.19-.18.19-.18 7.32-6.85 15.87-12.39 30.46-8.25 11.67 4.22 35.52 32.29 35.52 32.29 14.65.25 26.08 10.18 26.08 10.18z" fill="#5a5857" transform="matrix(-1.2768 0 0 1.2768 1012.319 -393.7751)"/><path d="m321.44 801.36-11.88 15.43 10.24-16.56z" fill="#966a4c" transform="matrix(-1.2768 0 0 1.2768 1012.319 -393.7751)"/><path d="m511.96 505.21c-2.34 5.87-6.11 10.69-11.92 14.52-.01 0-.02 0-.02.01-2.83 1.86-6.13 3.49-9.97 4.86-2.57-.24-4.49-.43-4.49-.43s6.21-1.24 10.34-11.31 13.32-10 16.06-7.65z" fill="#b68665" transform="matrix(-1.2768 0 0 1.2768 1012.319 -393.7751)"/><path d="m231.12 647.65c8.13 2.62 16.16 5.56 24.1 8.72 7.95 3.14 15.79 6.53 23.58 10.06 7.78 3.55 15.44 7.33 23 11.33 7.57 3.98 14.94 8.32 22.14 12.92-3.83-1.9-7.55-3.99-11.4-5.84-3.79-1.95-7.63-3.81-11.45-5.7-3.84-1.84-7.66-3.73-11.53-5.52l-5.78-2.73-5.81-2.66c-7.74-3.56-15.54-7.01-23.34-10.44-7.82-3.39-15.64-6.8-23.51-10.14z" fill="#3a1d14" transform="matrix(-1.2768 0 0 1.2768 1012.319 -393.7751)"/><path d="m499.56 586.15c-3.83.84-7.68 1.59-11.47 2.23-15.05 2.53-30.68 2.86-33.95-.43-7.9-7.94-11.55-22.89-8.63-32.16.64-2.01 6.1-10.66 16.3-13.46h.01c2.61-.72 5.53-1.06 8.76-.8-2.03-.18-18.09-1.49-26.4-.12-5.37.88-20.49-1.24-26.34-8.14-4.07-4.8-2.29-22.14 4.69-19.31 8.15 3.31 20.06 5.97 24.55 7.03 6.34 1.5 33.1 8.12 39.99 8.54 6.9.42 17.33-21.41 21.77-24.4 4.44-3 11.51 10.48 11.05 12.41s-9.14 17.1-9.22 18.75 21.23 18.04 32.2 32.25c2.99 3.89-19.62 12.41-43.31 17.61z" fill="#c4946e" transform="matrix(-1.2768 0 0 1.2768 1012.319 -393.774972)"/><path d="m499.56 586.15c-3.83.84-7.68 1.59-11.47 2.23-15.05 2.53-30.68 2.86-33.95-.43-7.9-7.94-11.55-22.89-8.63-32.16.64-2.01 6.1-10.66 16.3-13.46-.33.24-8.24 5.95-7.57 13.46.69 7.68 4.74 20.5 7.47 21.6s9.68-6.21 25.86-12.5c8.59-3.32 11.44 9 11.99 21.26z" fill="#b68665" transform="matrix(-1.2768 0 0 1.2768 1012.319 -393.7751)"/><path d="m460.06 583.06c1.75-1.47 3.67-2.72 5.62-3.92 1.96-1.19 3.98-2.27 6.03-3.3s4.15-1.96 6.26-2.86c1.06-.45 2.13-.86 3.19-1.29l3.23-1.2.6 1.89-3.26.95c-1.08.35-2.16.68-3.24 1.04-2.14.73-4.28 1.5-6.38 2.37s-4.17 1.79-6.2 2.83c-2 1.05-4 2.15-5.85 3.49z" fill="#966a4c" transform="matrix(-1.2768 0 0 1.2768 1012.319 -393.7751)"/><path d="m584.19 733.52c-1.41 1.85-2.99 3.64-4.73 5.36-4.69 4.62-14.4 6.21-27.73.19-.07-.03-.14-.06-.21-.1-9.16-4.18-20.03-11.95-32.15-24.78-33.95-35.96-58.17-99.9-58.17-114.79 0-9.74 4.53-17.73 11.19-24.07.03-.02.06-.06.09-.09 1.54-1.46 3.19-2.83 4.93-4.12 13.61-10.07 32.31-14.92 41.95-15.29 7.65-.29 16.16 2.34 24.53 9.12 0 0 .01.01.02.02 10.31 8.37 20.41 23.01 28.38 46.27 2.24 6.52 4.31 12.73 6.23 18.63 5.81 17.96 10.11 33.17 12.67 46.22 5.2 26.32 3.38 43.87-7 57.43z" fill="#59311e" transform="matrix(-1.2768 0 0 1.2768 1012.319 -393.775228)"/><path d="m434.66 475.28c2.17 2.53 4.48 4.8 6.93 6.9 2.45 2.09 5.02 3.99 7.76 5.61 2.74 1.61 5.56 3.13 8.57 4.27 1.47.66 3.02 1.11 4.56 1.67.76.32 1.56.47 2.35.72.79.24 1.58.48 2.38.76-.83.03-1.67.03-2.5.02-.84-.03-1.69-.01-2.51-.14-1.66-.25-3.35-.42-4.96-.93-3.29-.8-6.43-2.21-9.35-3.95-2.93-1.73-5.55-3.96-7.83-6.46-2.27-2.5-4.22-5.33-5.4-8.47z" fill="#401713" transform="matrix(-1.2768 0 0 1.2768 1012.319 -393.7751)"/><path d="m514.32 582.45c-1.02-.5-25.21-4.44-36.38-6.24-3.37-.54-5.55-.9-5.55-.9.03-.02.06-.06.09-.09.77-.84 3.23-4.45 4.54-8.88l.01-.01c.55-1.86.9-3.86.85-5.86 0 0 3.75-4.61 7.94 3.3.88-.91-.22-11.39 6.76-15.44 0 0 7.26 5.52 19.81 5.88 12.55.37 10.04-4.96 14.23-5.88 0 0 8.26 1.55 17.26 16.59 9.01 15.05-28.23 18.18-29.56 17.53z" fill="#59311e" transform="matrix(-1.2768 0 0 1.2768 1012.319 -393.7751)"/><path d="m326.87 801.53c-38.38 5.33-80.08-17.11-121.09-69.56-41-52.43-30.16-76.84-22.09-90.96 1.76-3.1 4.44-6.81 7.52-10.73h.01c-.3.52-13.56 23.4-10.11 37.58 3.49 14.34 79.8 99.45 111.79 112.89 31.99 13.43 73.25-14.3 81.02-49.8 3.37 24.87-35.07 68.92-47.05 70.58z" fill="#4c281a" transform="matrix(-1.2768 0 0 1.2768 1012.319128 -393.7751)"/><path d="m373.93 730.95s9.16 8.07 7.49 36.47c0 0-1.49-2.44-9.91-6.07 0 0-13.79 17.93-8.83 33.92 0 0-11.12-3.49-10.85-7.45 0 0 .46 11.81-2.48 14.46 0 0-2.55-6.28-10.3 0-6.1 4.94-12.14 10.45-12.14 10.45s-.66-8.86-7.27-10.54 8.37-16.67 8.37-16.67 7.44 7.34 18.34-4.79c10.91-12.11 22.55-21.26 27.58-49.78z" fill="#4c281a" transform="matrix(-1.2768 0 0 1.2768 1012.319 -393.7751)"/><path d="m593.32 698.99c-3.78-20.18-27.37-65.33-30.13-81.14s-19.3-52.92-19.3-52.92.01.01.02.02c10.31 8.37 20.41 23.01 28.38 46.27 2.24 6.52 4.31 12.73 6.23 18.63 5.81 17.96 10.11 33.17 12.67 46.22z" fill="#714233" transform="matrix(-1.2768 0 0 1.2768 1012.319 -393.7751)"/><path d="m571.22 608.2c3.71 9.03 7.01 18.23 9.96 27.54 1.49 4.65 2.85 9.34 4.18 14.04 1.3 4.71 2.48 9.45 3.59 14.22 1.08 4.77 2.03 9.57 2.86 14.39.79 4.83 1.45 9.69 1.83 14.57.41 4.88.53 9.8.18 14.7-.19 2.45-.5 4.89-1 7.29l-.17.9-.24.89-.49 1.77c-.34 1.17-.88 2.29-1.31 3.42 1.61-4.62 2.16-9.48 2.24-14.32.11-4.84-.21-9.69-.75-14.51-1.08-9.64-2.93-19.2-5.09-28.67-2.15-9.48-4.66-18.89-7.31-28.26-2.69-9.35-5.48-18.69-8.48-27.97z" fill="#3a1d14" transform="matrix(-1.2768 0 0 1.2768 1012.319 -393.7751)"/><path d="m612.52 719.88c-1.88 4.07-4.08 7.46-6.67 9.75-16.11 14.29-37.97 17.31-54.13 9.44-.07-.03-.14-.06-.21-.1-9.16-4.18-20.03-11.95-32.15-24.78-33.95-35.96-58.17-99.9-58.17-114.79 0-9.74 4.53-17.73 11.19-24.07.03-.02.06-.06.09-.09.77-.84 3.23-4.45 4.54-8.88l.01-.01s.1 1.73.38 4.77c.14 1.42.31 3.15.53 5.11 1.68 14.94 6.14 44.11 16.99 68.4 9.74 21.83 27.6 52.95 46.44 72.34 10.75 11.06 21.82 18.29 31.9 17.81 3.97-.19 7.6-.63 10.92-1.24 19.54-3.62 28.03-13.31 28.34-13.66z" fill="#4c281a" transform="matrix(-1.2768 0 0 1.2768 1012.319 -393.7751)"/></svg>